<svg width="48" height="38" viewBox="0 0 48 38" fill="none" xmlns="http://www.w3.org/2000/svg">
<path fill-rule="evenodd" clip-rule="evenodd" d="M36.6517 5.95338C36.6198 6.75546 36.4516 6.91345 35.6945 6.74724C34.6286 6.51194 33.5681 6.25344 32.5128 5.97754C31.7943 5.78911 31.6614 5.57361 31.7861 4.97302C31.9885 3.99653 32.3639 3.62639 33.0805 3.77863C33.9985 3.97382 34.9131 4.17 35.7756 4.58166C36.4927 4.92278 36.6821 5.15422 36.6516 5.95341L36.6517 5.95338ZM33.3849 4.61837C33.3115 4.60871 33.2366 4.60388 33.1627 4.58938C32.8549 4.52705 32.6471 4.61547 32.608 4.9566C32.5698 5.28129 32.8191 5.28419 33.0342 5.34603C33.8246 5.57119 34.6088 5.81277 35.4022 6.03166C35.6018 6.08723 35.8704 6.18192 35.9502 5.86206C36.0168 5.5997 35.8274 5.4446 35.6163 5.34652C34.9027 5.01409 34.1808 4.70197 33.385 4.61838L33.3849 4.61837Z" fill="black"/>
<path fill-rule="evenodd" clip-rule="evenodd" d="M42.2557 6.26848C43.6743 7.64506 45.059 9.09263 45.7191 10.9896C46.1158 12.1265 46.5207 13.2672 46.8743 14.4215C47.0879 15.1134 46.9859 15.8174 46.9164 16.5426C46.7154 18.6096 46.6453 19.8866 46.7265 22.0155C46.7748 23.3254 46.1452 24.5855 45.5572 25.7732C45.3514 26.1897 45.148 26.5883 45.1504 27.0545C45.1552 27.7643 44.9233 28.3996 44.5541 28.9838C43.9086 30.0106 41.5034 32.3993 41.0801 32.6936C38.5637 34.4432 34.896 35.6878 32.0559 36.5967C31.7326 36.7001 31.4012 36.7823 31.075 36.8808C29.4695 37.3698 27.8499 37.6336 26.1515 37.5379C24.6801 37.4534 23.1988 37.5636 21.7213 37.581C19.4692 37.6066 17.2805 37.1852 15.0868 36.7204C13.3102 36.345 11.5418 35.9377 9.77819 35.5111C7.30236 34.9124 5.15853 32.9627 3.18675 31.3896C2.79876 31.0809 2.46827 30.6823 2.33153 30.201C1.99814 29.0317 1.54879 27.9137 1.05304 26.8068C0.807106 26.2569 0.785844 25.637 0.634618 25.0538C0.305571 23.7811 -0.0263698 23.1786 0.00165889 21.8508C0.0219519 20.8569 -0.00124018 16.5407 0.000209368 16.4276C0.00938957 13.6831 2.79924 5.67122 9.18288 3.03175C11.4606 2.08135 13.7083 1.09089 16.1241 0.546276C33.2827 -1.99474 41.0386 5.08809 42.2557 6.26848ZM0.843492 18.2593C0.605768 21.5565 0.642493 21.326 1.23487 24.0029C1.45085 24.9818 1.92823 25.307 2.95592 25.1775C3.2178 25.1436 3.48113 25.1074 3.7435 25.1006C4.36437 25.0842 4.85431 25.4089 4.87654 25.9906C4.92631 27.3155 5.85739 28.7699 6.72376 29.4105C6.73125 29.416 6.73875 29.4216 6.74626 29.4271C7.56721 30.0341 8.51008 30.7312 9.7755 30.1647C10.7274 29.7386 11.7049 29.8681 12.3991 30.8441C12.5668 31.0803 12.8644 31.2243 13.1031 31.4113C14.2898 32.3414 15.3223 32.5014 16.5376 31.6442C17.9035 30.6822 19.38 30.5068 20.961 30.5484C21.7133 30.5687 22.3714 30.7436 22.9343 31.2654C23.2092 31.521 23.5194 31.7544 23.9137 31.8099C25.0525 31.9708 26.1793 32.0462 27.2384 31.4533C27.7772 31.1518 28.3666 31.0137 28.9745 30.9499C30.6676 30.773 31.3101 31.2886 31.5053 32.9705C31.5783 33.5972 31.844 33.7629 32.4267 33.4991C32.663 33.3918 32.8785 33.2242 33.0814 33.0584C34.0468 32.2791 34.7232 31.2707 35.2615 30.1763C35.7152 29.253 36.4337 28.674 37.4087 28.4905C38.3422 28.3146 39.7951 27.1849 40.4982 26.5921C40.963 26.2021 41.436 25.82 41.9105 25.4436C42.4695 25.0015 43.0797 24.6801 43.7968 25.0188C44.4051 25.3063 44.8641 24.9179 45.0207 24.5439C45.4521 23.5089 46.1179 22.5103 45.9923 21.3168C45.8884 20.3205 45.9329 16.5054 45.9334 15.2505C45.9329 13.7652 45.3937 12.2906 44.8472 10.8792C44.2374 9.30598 42.9589 8.22566 41.7906 7.12306C40.2377 5.65954 36.6178 2.39715 26.1881 0.872272C25.5822 0.915275 24.9787 0.901264 24.3718 0.894981C21.8323 0.86599 19.6096 0.778536 17.1228 1.33226C14.1624 1.99227 10.9164 3.13112 8.14596 4.39896C4.78598 6.80515 4.68542 7.95611 3.63502 9.27467C1.45111 12.0205 1.01443 14.505 0.843492 18.2593ZM13.0137 35.1557C13.7249 35.3045 14.2806 35.4031 14.8252 35.5403C15.3137 35.6616 15.6587 35.5577 16.0027 35.1475C16.7806 34.2242 17.4898 33.2288 18.4644 32.4848C18.6301 32.3567 18.7471 32.0915 19.1239 32.3408C18.1841 33.4352 17.2627 34.533 16.4384 35.6969C16.7341 35.9395 17.0197 35.909 17.2593 36.0047C17.9276 36.2709 18.4914 36.1308 18.9819 35.6249C19.9545 34.618 20.9339 33.6188 21.8968 32.6036C22.3525 32.1243 22.2631 31.6832 21.6079 31.5832C20.1839 31.3662 18.7513 31.23 17.4526 32.1475C16.8099 32.6041 16.1234 33.0312 15.2691 32.9834C15.028 32.9708 14.828 33.0984 14.6652 33.2603C14.1081 33.8174 13.5341 34.3595 13.0137 35.1557ZM26.7374 36.2656C27.05 36.4429 27.2722 36.4076 27.495 36.3936C28.2772 36.3477 29.0914 36.4675 29.6775 35.7292C30.296 34.9513 31.1647 34.2773 30.5294 33.0998C30.5149 33.0708 30.5274 33.0264 30.5226 32.9882C30.4617 32.0851 30.1452 31.6986 29.2659 31.9083C27.7324 32.2755 26.0663 32.4678 25.1343 34.0652C24.6869 34.8325 24.0018 35.45 23.5848 36.2473C23.8863 36.4488 24.1564 36.3763 24.4106 36.4038C25.3184 36.5058 25.9925 36.2086 26.4743 35.3771C26.8511 34.7272 27.356 34.1498 27.8276 33.5589C28.0624 33.2661 28.3407 33.0057 28.6185 32.7511C28.7524 32.6279 28.9331 32.51 29.1094 32.7061C29.2293 32.8414 29.1843 32.9878 29.0969 33.1183C29.0915 33.1264 29.0861 33.1345 29.0808 33.1427C28.9185 33.3881 28.7571 33.6324 28.5804 33.8648C27.9885 34.6432 27.3891 35.4172 26.7374 36.2656ZM36.31 34.0314C36.4376 34.158 36.5405 34.102 36.6434 34.0667C37.6803 33.7087 39.168 32.3635 39.7951 31.4624C40.3778 30.6241 40.7286 29.6732 41.4771 28.9658C41.6684 28.7836 41.9119 28.4976 42.1419 28.6908C42.457 28.9595 42.1385 29.2407 41.9569 29.4644C41.5017 30.0311 41.2925 30.7134 40.8248 31.2709C41.6394 30.7433 42.43 30.0315 43.1861 29.1425C43.5596 28.7048 43.8239 28.2047 44.0012 27.6597C44.2104 27.0161 44.0104 26.4634 43.4277 26.1324C42.9339 25.8526 42.6715 26.2875 42.3608 26.5334C42.0941 26.7445 41.8516 26.9856 41.5897 27.2016C40.9761 27.7065 40.2508 28.1047 39.7014 28.6376C39.179 29.1451 38.3208 30.6706 37.9328 31.3601C37.929 31.367 37.9251 31.3738 37.9213 31.3806C37.5507 32.0377 37.1144 32.659 36.7086 33.2978C36.5573 33.5389 36.2917 33.7232 36.31 34.0314ZM7.50828 33.4139C7.80689 33.7763 8.20116 33.8227 8.5273 33.9937C9.0612 34.2735 9.44388 34.1546 9.77684 33.6555C10.0276 33.2801 10.3363 32.9414 10.6393 32.6041C10.9046 32.3089 11.1853 32.02 11.7786 31.8837C11.3906 32.4012 11.1007 32.7766 10.8248 33.1617C10.5504 33.5439 10.2914 33.9362 9.98799 34.3793C10.6669 34.5571 11.224 34.6712 11.7564 34.8543C12.0676 34.963 12.2468 34.8876 12.443 34.6615C12.9334 34.0942 13.4393 33.5367 13.9684 32.9414C13.1364 32.5162 12.4096 31.991 11.7617 31.3692C11.0679 30.7048 10.4359 30.5956 9.67589 31.1546C8.82406 31.7828 8.15767 32.5945 7.50828 33.4139ZM25.1617 33.096C24.4161 32.7684 23.6537 32.8849 23.0198 32.5099C22.7806 32.3674 22.5753 32.536 22.4371 32.7196C21.534 33.9097 20.5904 35.0678 19.5405 36.2405C20.5464 36.298 21.4316 36.3526 22.3172 36.3966C22.5158 36.4062 22.6883 36.3115 22.8081 36.1564C23.587 35.1505 24.3601 34.1411 25.1617 33.096ZM38.1419 29.6133C37.0601 29.7027 36.4387 30.1192 35.9778 30.8271C35.3168 31.8383 34.637 32.8356 33.7577 33.6836C33.2817 34.1407 32.7623 34.5528 32.0979 34.5611C31.1263 34.5741 30.8524 35.2737 30.3566 36.0256C31.1166 35.8917 31.7211 35.842 32.2893 35.668C33.1822 35.396 34.1969 35.2225 34.8197 34.5031C36.0731 33.0502 37.1017 31.4252 38.1419 29.6133ZM4.70665 27.9077C4.49889 28.1537 4.32349 28.3469 4.16357 28.5533C3.03777 30.0023 3.07933 30.1796 4.75497 31.1537C4.83759 31.085 4.93664 31.0256 5.00719 30.9415C6.28468 29.4147 6.28369 29.4137 4.70665 27.9077ZM2.98943 29.0147C3.51705 28.6697 3.66636 28.2097 3.99105 27.9058C4.53607 27.3965 4.18916 26.8423 4.03551 26.3452C3.86157 25.7794 3.34747 26.0398 2.97204 26.0939C2.61546 26.1452 2.21926 25.9843 1.8303 26.3148C2.04869 27.2463 2.88072 27.9319 2.98943 29.0147ZM8.4309 31.2721C6.74226 30.5058 6.57168 29.8602 5.57151 31.1107C5.24296 31.5209 5.2729 31.7523 5.75221 31.9442C5.99622 32.0418 6.23925 32.1452 6.47069 32.2684C6.69585 32.3901 6.8954 33.1086 7.06983 32.8951C7.51386 32.35 8.10958 31.9287 8.4309 31.2721Z" fill="black"/>
<path d="M0.843492 18.2593C0.605768 21.5565 0.642493 21.326 1.23487 24.0029C1.45085 24.9818 1.92823 25.307 2.95592 25.1775C3.2178 25.1436 3.48113 25.1074 3.7435 25.1006C4.36437 25.0842 4.85431 25.4089 4.87654 25.9906C4.92631 27.3155 5.85739 28.7699 6.72376 29.4105L6.74626 29.4271C7.56721 30.0341 8.51008 30.7312 9.7755 30.1647C10.7274 29.7386 11.7049 29.8681 12.3991 30.8441C12.5668 31.0803 12.8644 31.2243 13.1031 31.4113C14.2898 32.3414 15.3223 32.5014 16.5376 31.6442C17.9035 30.6822 19.38 30.5068 20.961 30.5484C21.7133 30.5687 22.3714 30.7436 22.9343 31.2654C23.2092 31.521 23.5194 31.7544 23.9137 31.8099C25.0525 31.9708 26.1793 32.0462 27.2384 31.4533C27.7772 31.1518 28.3666 31.0137 28.9745 30.9499C30.6676 30.773 31.3101 31.2886 31.5053 32.9705C31.5783 33.5972 31.844 33.7629 32.4267 33.4991C32.663 33.3918 32.8785 33.2242 33.0814 33.0584C34.0468 32.2791 34.7232 31.2707 35.2615 30.1763C35.7152 29.253 36.4337 28.674 37.4087 28.4905C38.3422 28.3146 39.7951 27.1849 40.4982 26.5921C40.963 26.2021 41.436 25.82 41.9105 25.4436C42.4695 25.0015 43.0797 24.6801 43.7968 25.0188C44.4051 25.3063 44.8641 24.9179 45.0207 24.5439C45.4521 23.5089 46.1179 22.5103 45.9923 21.3168C45.8884 20.3205 45.9329 16.5054 45.9334 15.2505C45.9329 13.7652 45.3937 12.2906 44.8472 10.8792C44.2374 9.30598 42.9589 8.22566 41.7906 7.12306C40.2377 5.65954 36.6178 2.39715 26.1881 0.872272C25.5822 0.915275 24.9787 0.901264 24.3718 0.894981C21.8323 0.86599 19.6096 0.778536 17.1228 1.33226C14.1624 1.99227 10.9164 3.13112 8.14596 4.39896C4.78598 6.80515 4.68542 7.95611 3.63502 9.27467C1.45111 12.0205 1.01443 14.505 0.843492 18.2593Z" fill="#BDF2EE"/>
<path d="M25.1617 33.096C24.4161 32.7684 23.6537 32.8849 23.0198 32.5099C22.7806 32.3674 22.5753 32.536 22.4371 32.7196C21.534 33.9097 20.5904 35.0678 19.5405 36.2405C20.5464 36.298 21.4316 36.3526 22.3172 36.3966C22.5158 36.4062 22.6883 36.3115 22.8081 36.1564C23.587 35.1505 24.3601 34.1411 25.1617 33.096Z" fill="#FF9CC3"/>
<path d="M13.0137 35.1557C13.7249 35.3045 14.2806 35.4031 14.8252 35.5403C15.3137 35.6616 15.6587 35.5577 16.0027 35.1475C16.7806 34.2242 17.4898 33.2288 18.4644 32.4848C18.6301 32.3567 18.7471 32.0915 19.1239 32.3408C18.1841 33.4352 17.2627 34.533 16.4384 35.6969C16.7341 35.9395 17.0197 35.909 17.2593 36.0047C17.9276 36.2709 18.4914 36.1308 18.9819 35.6249C19.9545 34.618 20.9339 33.6188 21.8968 32.6036C22.3525 32.1243 22.2631 31.6832 21.6079 31.5832C20.1839 31.3662 18.7513 31.23 17.4526 32.1475C16.8099 32.6041 16.1234 33.0312 15.2691 32.9834C15.028 32.9708 14.828 33.0984 14.6652 33.2603C14.1081 33.8174 13.5341 34.3595 13.0137 35.1557Z" fill="#FF9CC3"/>
<path d="M26.7374 36.2656C27.05 36.4429 27.2722 36.4076 27.495 36.3936C28.2772 36.3477 29.0914 36.4675 29.6775 35.7292C30.296 34.9513 31.1647 34.2773 30.5294 33.0998C30.5149 33.0708 30.5274 33.0264 30.5226 32.9882C30.4617 32.0851 30.1452 31.6986 29.2659 31.9083C27.7324 32.2755 26.0663 32.4678 25.1343 34.0652C24.6869 34.8325 24.0018 35.45 23.5848 36.2473C23.8863 36.4488 24.1564 36.3763 24.4106 36.4038C25.3184 36.5058 25.9925 36.2086 26.4743 35.3771C26.8511 34.7272 27.356 34.1498 27.8276 33.5589C28.0624 33.2661 28.3407 33.0057 28.6185 32.7511C28.7524 32.6279 28.9331 32.51 29.1094 32.7061C29.2293 32.8414 29.1843 32.9878 29.0969 33.1183L29.0808 33.1427C28.9185 33.3881 28.7571 33.6324 28.5804 33.8648C27.9885 34.6432 27.3891 35.4172 26.7374 36.2656Z" fill="#FF9CC3"/>
<path d="M38.1419 29.6133C37.0601 29.7027 36.4387 30.1192 35.9778 30.8271C35.3168 31.8383 34.637 32.8356 33.7577 33.6836C33.2817 34.1407 32.7623 34.5528 32.0979 34.5611C31.1263 34.5741 30.8524 35.2737 30.3566 36.0256C31.1166 35.8917 31.7211 35.842 32.2893 35.668C33.1822 35.396 34.1969 35.2225 34.8197 34.5031C36.0731 33.0502 37.1017 31.4252 38.1419 29.6133Z" fill="#FF9CC3"/>
<path d="M36.31 34.0314C36.4376 34.158 36.5405 34.102 36.6434 34.0667C37.6803 33.7087 39.168 32.3635 39.7951 31.4624C40.3778 30.6241 40.7286 29.6732 41.4771 28.9658C41.6684 28.7836 41.9119 28.4976 42.1419 28.6908C42.457 28.9595 42.1385 29.2407 41.9569 29.4644C41.5017 30.0311 41.2925 30.7134 40.8248 31.2709C41.6394 30.7433 42.43 30.0315 43.1861 29.1425C43.5596 28.7048 43.8239 28.2047 44.0012 27.6597C44.2104 27.0161 44.0104 26.4634 43.4277 26.1324C42.9339 25.8526 42.6715 26.2875 42.3608 26.5334C42.0941 26.7445 41.8516 26.9856 41.5897 27.2016C40.9761 27.7065 40.2508 28.1047 39.7014 28.6376C39.179 29.1451 38.3208 30.6706 37.9328 31.3601L37.9213 31.3806C37.5507 32.0377 37.1144 32.659 36.7086 33.2978C36.5573 33.5389 36.2917 33.7232 36.31 34.0314Z" fill="#FF9CC3"/>
<path d="M7.50828 33.4139C7.80689 33.7763 8.20116 33.8227 8.5273 33.9937C9.0612 34.2735 9.44388 34.1546 9.77684 33.6555C10.0276 33.2801 10.3363 32.9414 10.6393 32.6041C10.9046 32.3089 11.1853 32.02 11.7786 31.8837C11.3906 32.4012 11.1007 32.7766 10.8248 33.1617C10.5504 33.5439 10.2914 33.9362 9.98799 34.3793C10.6669 34.5571 11.224 34.6712 11.7564 34.8543C12.0676 34.963 12.2468 34.8876 12.443 34.6615C12.9334 34.0942 13.4393 33.5367 13.9684 32.9414C13.1364 32.5162 12.4096 31.991 11.7617 31.3692C11.0679 30.7048 10.4359 30.5956 9.67589 31.1546C8.82406 31.7828 8.15767 32.5945 7.50828 33.4139Z" fill="#FF9CC3"/>
<path d="M8.4309 31.2721C6.74226 30.5058 6.57168 29.8602 5.57151 31.1107C5.24296 31.5209 5.2729 31.7523 5.75221 31.9442C5.99622 32.0418 6.23925 32.1452 6.47069 32.2684C6.69585 32.3901 6.8954 33.1086 7.06983 32.8951C7.51386 32.35 8.10958 31.9287 8.4309 31.2721Z" fill="#FF9CC3"/>
<path d="M4.70665 27.9077C4.49889 28.1537 4.32349 28.3469 4.16357 28.5533C3.03777 30.0023 3.07933 30.1796 4.75497 31.1537C4.83759 31.085 4.93664 31.0256 5.00719 30.9415C6.28468 29.4147 6.28369 29.4137 4.70665 27.9077Z" fill="#FF9CC3"/>
<path d="M2.98943 29.0147C3.51705 28.6697 3.66636 28.2097 3.99105 27.9058C4.53607 27.3965 4.18916 26.8423 4.03551 26.3452C3.86157 25.7794 3.34747 26.0398 2.97204 26.0939C2.61546 26.1452 2.21926 25.9843 1.8303 26.3148C2.04869 27.2463 2.88072 27.9319 2.98943 29.0147Z" fill="#FF9CC3"/>
<path fill-rule="evenodd" clip-rule="evenodd" d="M17.6497 12.7104C16.4848 12.7418 16.0615 13.0844 15.8514 14.159C15.4813 16.0549 16.4998 17.2421 18.4412 17.2087C18.8249 17.202 18.9529 16.913 19.1293 16.6893C20.3034 15.1992 21.5717 13.7927 22.9237 12.4625C23.2256 12.1659 23.4817 11.7551 24.2277 11.717C22.7361 13.8178 20.7576 15.2678 19.4747 17.2894C19.7651 17.5127 19.8772 17.2464 20.0096 17.0899C20.588 16.4091 21.4582 16.1298 22.109 15.5409C23.3789 14.3967 24.6268 13.229 25.6888 11.8891C26.3165 11.0982 27.0978 10.8281 28.0418 10.816C28.5757 10.8107 29.0932 10.8701 29.6088 11.0344C31.5637 11.6606 32.3576 13.5116 31.4439 15.3608C30.822 16.62 29.8117 17.4567 28.4965 17.8719C27.2697 18.2598 26.0169 18.5647 24.7635 18.857C23.5222 19.1479 22.2607 18.9406 21.0266 18.8039C19.5616 18.642 18.1315 18.2347 16.7215 17.7863C15.875 17.5167 15.3015 16.9369 14.9449 16.1363C14.3347 14.766 15.2329 12.6202 16.637 12.1395C17.097 11.9815 17.613 11.8085 17.8609 12.486C17.7918 12.5618 17.7203 12.6367 17.6498 12.7106L17.6497 12.7104ZM23.4613 15.3683C24.1909 15.6553 24.6161 15.4949 25.0335 15.0547C25.9216 14.1212 26.8503 13.2259 27.7799 12.334C27.9461 12.1745 28.1804 11.8581 28.4399 12.1562C28.6448 12.3896 28.3302 12.5495 28.2002 12.6998C27.4267 13.5893 26.5304 14.3536 25.6569 15.1422C25.0804 15.6611 25.0901 15.6713 25.7714 16.3158C26.845 15.479 27.8422 14.5522 28.8047 13.583C29.0622 13.323 29.2946 12.8998 29.8145 13.0515C29.7556 13.5226 29.4391 13.7554 29.1927 14.0309C28.38 14.9402 27.4436 15.7142 26.5328 16.5177C26.3062 16.7172 26.1666 16.9187 26.4381 17.1787C26.7053 17.4323 26.8338 17.1318 26.9769 17.012C27.9065 16.2312 28.7471 15.347 29.7566 14.6608C29.9861 14.5043 30.2166 14.2313 30.6099 14.4898C30.3369 15.1256 29.6996 15.3672 29.2473 15.7818C28.7902 16.2016 28.2292 16.5085 27.7997 17.1651C29.2516 16.8685 30.1909 16.1176 30.7891 14.9513C31.5288 13.5124 30.8785 12.1808 29.3019 11.8812C28.7091 11.7682 28.0974 11.746 27.4954 11.6706C27.2099 11.6339 26.9895 11.6909 26.7943 11.9267C25.812 13.1269 24.6616 14.1729 23.4614 15.3683L23.4613 15.3683ZM20.6511 17.4899C22.2872 17.6629 23.8801 17.9774 25.5509 17.5406C25.1383 16.7081 24.6261 16.2675 23.7037 16.2254C22.4697 16.1674 21.5744 16.8105 20.651 17.4899L20.6511 17.4899Z" fill="black"/>
<path fill-rule="evenodd" clip-rule="evenodd" d="M24.1088 29.7034C21.5769 29.7324 19.1601 29.227 16.7235 28.9013C16.6114 28.8868 16.5012 28.8549 16.3877 28.8433C16.1481 28.8148 15.8809 28.739 15.8925 28.4805C15.9055 28.2142 16.1732 28.1756 16.4191 28.1944C17.0231 28.2456 17.6319 28.2524 18.2324 28.3355C22.408 28.9076 26.5841 29.1613 30.7897 28.6182C32.001 28.4611 33.1776 28.2592 34.2961 27.7687C34.5102 27.676 34.7662 27.5663 34.9117 27.7939C35.0615 28.0282 34.8257 28.2075 34.6653 28.3606C34.3319 28.6786 33.9366 28.9042 33.4989 29.0429C32.1968 29.4613 30.8598 29.7473 29.4953 29.8063C27.6815 29.8841 25.8624 29.9672 24.1084 29.7034L24.1088 29.7034Z" fill="black"/>
<path fill-rule="evenodd" clip-rule="evenodd" d="M41.0127 25.0636C41.5113 24.5529 41.895 23.8436 42.9218 23.9711C42.3357 24.6089 41.8728 25.1617 41.0127 25.0636Z" fill="black"/>
<path fill-rule="evenodd" clip-rule="evenodd" d="M13.8885 20.467C13.8571 21.2685 13.6884 21.427 12.9313 21.2608C11.8654 21.0255 10.8049 20.7675 9.74957 20.4911C9.03109 20.3027 8.89822 20.0872 9.02288 19.4866C9.22533 18.5106 9.60076 18.141 10.3183 18.2922C11.2354 18.4884 12.1509 18.6841 13.012 19.0952C13.7295 19.4359 13.9189 19.6673 13.8885 20.467ZM10.6228 19.132C10.5488 19.1228 10.4739 19.1175 10.3995 19.103C10.0917 19.0411 9.88349 19.1291 9.84388 19.4692C9.80667 19.7939 10.056 19.7968 10.27 19.8586C11.0605 20.0838 11.8451 20.3263 12.6376 20.5443C12.8386 20.5998 13.1073 20.6945 13.186 20.3747C13.2517 20.1123 13.0633 19.9572 12.8517 19.8591C12.139 19.5277 11.4181 19.2151 10.6228 19.132Z" fill="#FFDC4B"/>
<path d="M10.6228 19.132C10.5488 19.1228 10.4739 19.1175 10.3995 19.103C10.0917 19.0411 9.88349 19.1291 9.84388 19.4692C9.80667 19.7939 10.056 19.7968 10.27 19.8586C11.0605 20.0838 11.8451 20.3263 12.6376 20.5443C12.8386 20.5998 13.1073 20.6945 13.186 20.3747C13.2517 20.1123 13.0633 19.9572 12.8517 19.8591C12.139 19.5277 11.4181 19.2151 10.6228 19.132Z" fill="#FFDC4B"/>
<path fill-rule="evenodd" clip-rule="evenodd" d="M9.70609 13.4713C10.011 14.2129 9.92352 14.427 9.1659 14.5913C8.09857 14.8198 7.02689 15.0271 5.95274 15.2155C5.22122 15.3436 5.01056 15.203 4.87333 14.6048C4.65107 13.6336 4.83854 13.1403 5.55509 12.9803C6.47021 12.776 7.38437 12.573 8.33816 12.5885C9.13154 12.6006 9.40116 12.732 9.70609 13.4713ZM6.18036 13.6172C6.10885 13.6399 6.03928 13.6655 5.96583 13.6829C5.65949 13.7544 5.5073 13.9221 5.61311 14.2487C5.71409 14.5584 5.94216 14.4579 6.16296 14.4246C6.97421 14.2994 7.78927 14.1926 8.60205 14.0617C8.80643 14.0284 9.09102 14.0027 9.03013 13.6795C8.98085 13.4133 8.74458 13.351 8.51121 13.349C7.72412 13.3456 6.93798 13.363 6.18036 13.6172Z" fill="#FF66A2"/>
<path d="M6.18036 13.6172C6.10885 13.6399 6.03928 13.6655 5.96583 13.6829C5.65949 13.7544 5.5073 13.9221 5.61311 14.2487C5.71409 14.5584 5.94216 14.4579 6.16296 14.4246C6.97421 14.2994 7.78927 14.1926 8.60205 14.0617C8.80643 14.0284 9.09102 14.0027 9.03013 13.6795C8.98085 13.4133 8.74458 13.351 8.51121 13.349C7.72412 13.3456 6.93798 13.363 6.18036 13.6172Z" fill="#FF66A2"/>
<path fill-rule="evenodd" clip-rule="evenodd" d="M14.5352 6.97974C14.8401 7.72141 14.7526 7.93643 13.995 8.09974C12.9277 8.32828 11.856 8.53556 10.7818 8.724C10.0503 8.85205 9.83966 8.7124 9.70243 8.11375C9.48017 7.14257 9.66764 6.64874 10.3842 6.4893C11.2993 6.28589 12.2135 6.0815 13.1673 6.09648C13.9611 6.10904 14.2307 6.24049 14.5352 6.97974ZM11.0095 7.12663C10.9389 7.14885 10.8684 7.17446 10.7949 7.1933C10.4896 7.26385 10.3369 7.43151 10.4432 7.75765C10.5442 8.06784 10.7717 7.96735 10.9925 7.93353C11.8043 7.80887 12.6188 7.70209 13.4316 7.57115C13.6365 7.53781 13.9206 7.5122 13.8597 7.18896C13.8104 6.92226 13.5742 6.85992 13.3408 6.85847C12.5537 6.8546 11.7676 6.87151 11.0095 7.12663Z" fill="#FFDC4B"/>
<path d="M11.0095 7.12663C10.9389 7.14885 10.8684 7.17446 10.7949 7.1933C10.4896 7.26385 10.3369 7.43151 10.4432 7.75765C10.5442 8.06784 10.7717 7.96735 10.9925 7.93353C11.8043 7.80887 12.6188 7.70209 13.4316 7.57115C13.6365 7.53781 13.9206 7.5122 13.8597 7.18896C13.8104 6.92226 13.5742 6.85992 13.3408 6.85847C12.5537 6.8546 11.7676 6.87151 11.0095 7.12663Z" fill="#FFDC4B"/>
<path fill-rule="evenodd" clip-rule="evenodd" d="M41.4378 18.0763C41.329 18.8716 41.1459 19.0126 40.4086 18.774C39.3707 18.4348 38.3401 18.0748 37.3173 17.6975C36.621 17.4399 36.5089 17.2123 36.6916 16.6267C36.9887 15.6749 37.398 15.3439 38.0976 15.5662C38.991 15.8488 39.8838 16.1329 40.7004 16.6258C41.3803 17.0345 41.547 17.2848 41.4378 18.0763ZM38.3174 16.4305C38.2454 16.4146 38.1705 16.4006 38.099 16.3808C37.7989 16.287 37.5829 16.3566 37.51 16.6919C37.4414 17.0099 37.6888 17.0384 37.896 17.12C38.6609 17.4206 39.4189 17.7385 40.1872 18.0327C40.3805 18.1067 40.6394 18.2274 40.7496 17.9173C40.8409 17.6621 40.6684 17.4896 40.467 17.3708C39.7881 16.9722 39.1011 16.5914 38.3174 16.4305Z" fill="#FF66A2"/>
<path d="M38.3174 16.4305C38.2454 16.4146 38.1705 16.4006 38.099 16.3808C37.7989 16.287 37.5829 16.3566 37.51 16.6919C37.4414 17.0099 37.6888 17.0384 37.896 17.12C38.6609 17.4206 39.4189 17.7385 40.1872 18.0327C40.3805 18.1067 40.6394 18.2274 40.7496 17.9173C40.8409 17.6621 40.6684 17.4896 40.467 17.3708C39.7881 16.9722 39.1011 16.5914 38.3174 16.4305Z" fill="#FF66A2"/>
<path fill-rule="evenodd" clip-rule="evenodd" d="M33.0537 21.5989C33.5094 22.2589 33.4702 22.4869 32.7643 22.8082C31.7704 23.26 30.7665 23.69 29.758 24.1027C29.07 24.382 28.8342 24.2911 28.5728 23.734C28.1495 22.8329 28.2278 22.3111 28.8941 22.0028C29.7445 21.6081 30.5939 21.2148 31.5298 21.0263C32.3078 20.8703 32.5977 20.9413 33.0537 21.5989ZM29.6401 22.4918C29.5744 22.5285 29.5111 22.5686 29.4449 22.6019C29.1608 22.7372 29.0482 22.9329 29.2212 23.2296C29.3855 23.5103 29.5869 23.3649 29.7947 23.2842C30.5615 22.989 31.335 22.7111 32.1005 22.4116C32.2932 22.3362 32.5653 22.2497 32.4377 21.9468C32.3324 21.6965 32.0893 21.6863 31.8598 21.7342C31.0906 21.8989 30.3266 22.0816 29.6401 22.4918Z" fill="#FFDC4B"/>
<path d="M29.6401 22.4918C29.5744 22.5285 29.5111 22.5686 29.4449 22.6019C29.1608 22.7372 29.0482 22.9329 29.2212 23.2296C29.3855 23.5103 29.5869 23.3649 29.7947 23.2842C30.5615 22.989 31.335 22.7111 32.1005 22.4116C32.2932 22.3362 32.5653 22.2497 32.4377 21.9468C32.3324 21.6965 32.0893 21.6863 31.8598 21.7342C31.0906 21.8989 30.3266 22.0816 29.6401 22.4918Z" fill="#FFDC4B"/>
<path fill-rule="evenodd" clip-rule="evenodd" d="M21.9444 22.8913C22.2493 23.633 22.1618 23.8471 21.4042 24.0113C20.3369 24.2399 19.2652 24.4472 18.191 24.6356C17.459 24.7637 17.2489 24.623 17.1116 24.0249C16.8894 23.0537 17.0768 22.5604 17.7924 22.4014C18.7075 22.197 19.6217 21.9936 20.5755 22.0086C21.3703 22.0207 21.6396 22.1521 21.9444 22.8913ZM18.4187 23.0373C18.3481 23.06 18.2776 23.0851 18.2041 23.1039C17.8978 23.1755 17.7461 23.3431 17.8514 23.6693C17.9524 23.979 18.1805 23.8789 18.4008 23.8446C19.2125 23.72 20.0271 23.6132 20.8399 23.4823C21.0442 23.4489 21.3288 23.4233 21.268 23.1001C21.2187 22.8339 20.9824 22.7715 20.749 22.7696C19.9629 22.7657 19.1773 22.7826 18.4187 23.0373Z" fill="#FF66A2"/>
<path d="M18.4187 23.0373C18.3481 23.06 18.2776 23.0851 18.2041 23.1039C17.8978 23.1755 17.7461 23.3431 17.8514 23.6693C17.9524 23.979 18.1805 23.8789 18.4008 23.8446C19.2125 23.72 20.0271 23.6132 20.8399 23.4823C21.0442 23.4489 21.3288 23.4233 21.268 23.1001C21.2187 22.8339 20.9824 22.7715 20.749 22.7696C19.9629 22.7657 19.1773 22.7826 18.4187 23.0373Z" fill="#FF66A2"/>
<path fill-rule="evenodd" clip-rule="evenodd" d="M21.8452 10.381C21.652 11.1604 21.4558 11.2816 20.7475 10.9671C19.7512 10.5211 18.7631 10.0544 17.787 9.57223C17.1207 9.2427 17.0342 9.00644 17.2773 8.44161C17.672 7.526 18.1141 7.23996 18.7857 7.53421C19.6453 7.90964 20.5029 8.28554 21.2629 8.86193C21.8963 9.33882 22.0356 9.60652 21.8452 10.381ZM18.9149 8.41641C18.8443 8.39225 18.7713 8.37196 18.7027 8.34345C18.4133 8.21928 18.1916 8.26566 18.0843 8.59132C17.9823 8.90103 18.2249 8.95418 18.4235 9.05758C19.1521 9.4359 19.872 9.8321 20.6045 10.2051C20.7896 10.2993 21.0331 10.4462 21.1761 10.1495C21.2931 9.90553 21.1399 9.71614 20.9519 9.5765C20.3199 9.10928 19.6759 8.65896 18.9149 8.41641Z" fill="#FFDC4B"/>
<path d="M18.9149 8.41641C18.8443 8.39225 18.7713 8.37196 18.7027 8.34345C18.4133 8.21928 18.1916 8.26566 18.0843 8.59132C17.9823 8.90103 18.2249 8.95418 18.4235 9.05758C19.1521 9.4359 19.872 9.8321 20.6045 10.2051C20.7896 10.2993 21.0331 10.4462 21.1761 10.1495C21.2931 9.90553 21.1399 9.71614 20.9519 9.5765C20.3199 9.10928 19.6759 8.65896 18.9149 8.41641Z" fill="#FFDC4B"/>
<path fill-rule="evenodd" clip-rule="evenodd" d="M41.2926 12.1809C41.4825 12.9602 41.3646 13.1598 40.5896 13.2076C39.5015 13.2743 38.4095 13.3173 37.3194 13.3419C36.5778 13.3579 36.3898 13.1883 36.3449 12.5766C36.2719 11.5827 36.5304 11.1232 37.2619 11.073C38.1983 11.0087 39.1323 10.9449 40.0735 11.103C40.8552 11.2339 41.1027 11.4044 41.2926 12.1809ZM37.7857 11.7963C37.7127 11.8074 37.6388 11.8224 37.5639 11.8301C37.2503 11.8538 37.0754 11.9968 37.131 12.336C37.1841 12.6573 37.4238 12.5921 37.6475 12.5921C38.4689 12.5901 39.2898 12.6075 40.1122 12.5998C40.3209 12.5978 40.6055 12.6152 40.5944 12.2867C40.5838 12.0147 40.361 11.918 40.1296 11.8813C39.3517 11.7596 38.5732 11.659 37.7857 11.7963Z" fill="#FFDC4B"/>
<path d="M37.7857 11.7963C37.7127 11.8074 37.6388 11.8224 37.5639 11.8301C37.2503 11.8538 37.0754 11.9968 37.131 12.336C37.1841 12.6573 37.4238 12.5921 37.6475 12.5921C38.4689 12.5901 39.2898 12.6075 40.1122 12.5998C40.3209 12.5978 40.6055 12.6152 40.5944 12.2867C40.5838 12.0147 40.361 11.918 40.1296 11.8813C39.3517 11.7596 38.5732 11.659 37.7857 11.7963Z" fill="#FFDC4B"/>
<path fill-rule="evenodd" clip-rule="evenodd" d="M17.906 16.1701C17.7335 16.1237 17.7253 15.9932 17.775 15.8831C17.8499 15.7183 17.9475 15.5584 18.0596 15.4154C18.8356 14.4331 19.6144 13.4518 20.4016 12.4787C20.534 12.3154 20.6992 12.1762 20.8621 12.0409C20.9568 11.9622 21.094 11.924 21.1945 12.0153C21.3283 12.1366 21.3042 12.2888 21.1916 12.4197C20.8355 12.8381 20.4707 13.2488 20.1185 13.6701C19.4923 14.4205 18.8753 15.1767 18.251 15.927C18.1572 16.041 18.0804 16.1879 17.906 16.17L17.906 16.1701Z" fill="black"/>
<path fill-rule="evenodd" clip-rule="evenodd" d="M17.4623 13.1992C17.5203 13.1398 17.5778 13.0794 17.6353 13.0199C18.0281 12.7576 18.2276 12.3203 18.5615 12.0029C18.7775 11.7985 18.921 11.4936 19.2742 11.4888C19.3795 11.5927 19.4114 11.711 19.3399 11.8246C18.6006 13.0069 17.6624 14.0226 16.6737 14.9962C16.5727 15.0957 16.4263 15.2218 16.2828 15.0599C16.1582 14.9198 16.2369 14.7783 16.3369 14.6483C16.7099 14.1637 17.1805 13.7549 17.4622 13.1992L17.4623 13.1992Z" fill="black"/>
<path d="M24.0211 3.53988C23.9505 3.51572 23.8776 3.49543 23.809 3.46692C23.52 3.34372 23.2978 3.38913 23.1905 3.71479C23.0885 4.02451 23.3316 4.07765 23.5297 4.18008C24.2583 4.55889 24.9787 4.95461 25.7108 5.32762C25.8973 5.42232 26.1393 5.56872 26.2828 5.27205C26.3998 5.02804 26.2466 4.83913 26.0586 4.69997C25.4276 4.23227 24.7831 3.78243 24.0211 3.53988Z" fill="#FF66A2"/>
<path fill-rule="evenodd" clip-rule="evenodd" d="M26.9525 5.50399C26.7587 6.28384 26.5625 6.40462 25.8532 6.09008C24.8569 5.64411 23.8693 5.17785 22.8933 4.69521C22.227 4.36616 22.1405 4.12941 22.3826 3.56458C22.7783 2.64946 23.2194 2.36294 23.891 2.65719C24.7515 3.03262 25.6082 3.40852 26.3692 3.9849C27.0031 4.4618 27.1433 4.72901 26.9525 5.50399ZM23.809 3.46692C23.8776 3.49543 23.9505 3.51572 24.0211 3.53988C24.7831 3.78243 25.4276 4.23227 26.0586 4.69997C26.2466 4.83913 26.3998 5.02804 26.2828 5.27205C26.1393 5.56872 25.8973 5.42232 25.7108 5.32762C24.9787 4.95461 24.2583 4.55889 23.5297 4.18008C23.3316 4.07765 23.0885 4.02451 23.1905 3.71479C23.2978 3.38913 23.52 3.34372 23.809 3.46692Z" fill="#FF66A2"/>
</svg>
