<svg width="32" height="32" viewBox="0 0 32 32" fill="none" xmlns="http://www.w3.org/2000/svg">
<path d="M10.2977 6.05827C9.17665 6.22623 8.28996 6.67153 7.4814 7.48009C6.64939 8.3121 6.19628 9.24176 6.04394 10.4097C5.98535 10.8667 5.98535 21.132 6.04394 21.589C6.19628 22.7569 6.64939 23.6866 7.4814 24.5186C8.3134 25.3506 9.24306 25.8037 10.411 25.9561C10.868 26.0146 21.1333 26.0146 21.5903 25.9561C22.7582 25.8037 23.6879 25.3506 24.5199 24.5186C25.3519 23.6866 25.805 22.7569 25.9574 21.589C26.0159 21.132 26.0159 10.8667 25.9574 10.4097C25.805 9.24176 25.3519 8.3121 24.5199 7.48009C23.6879 6.64809 22.7582 6.19498 21.5903 6.04264C21.0903 5.97624 10.7391 5.99186 10.2977 6.05827ZM22.0044 7.82383C22.4458 7.97617 22.5434 8.02695 22.9067 8.27694C23.4848 8.67537 23.9418 9.29644 24.1723 9.99564L24.3012 10.3941V15.9993C24.3012 21.3625 24.2973 21.6164 24.2269 21.839C23.9652 22.6866 23.5121 23.3155 22.8442 23.7686C22.5551 23.9639 22.3051 24.0772 21.8989 24.2061L21.6059 24.2999H16.0007H10.3954L9.99694 24.171C8.90323 23.8116 8.13763 23.0108 7.77436 21.839C7.70405 21.6164 7.70014 21.3625 7.70014 15.9993C7.70014 10.6362 7.70405 10.3823 7.77436 10.1597C8.05169 9.2691 8.53605 8.62068 9.25868 8.16757C9.56336 7.97617 10.0868 7.77305 10.411 7.71837C10.5086 7.70274 13.0789 7.69102 16.1178 7.69493L21.645 7.69884L22.0044 7.82383Z" fill="black"/>
<path d="M21.1568 9.37425C20.8794 9.43675 20.7193 9.52269 20.5317 9.7141C20.2778 9.97583 20.1997 10.1829 20.1997 10.5891C20.1997 10.8938 20.2153 10.968 20.3052 11.136C20.52 11.5423 20.8833 11.7806 21.3365 11.8118C21.6685 11.8314 21.8443 11.7845 22.1216 11.597C22.899 11.0735 22.8092 9.88207 21.9654 9.47972C21.6763 9.34299 21.4458 9.31174 21.1568 9.37425Z" fill="black"/>
<path d="M15.3602 11.0426C13.4736 11.3043 11.8642 12.6167 11.2783 14.3823C11.0791 14.9838 11.0244 15.3315 11.0244 15.9994C11.0244 16.6674 11.0791 17.015 11.2783 17.6205C11.751 19.0345 12.9697 20.2493 14.3915 20.7258C14.9852 20.9211 15.3368 20.9758 16.0008 20.9758C16.6649 20.9758 17.0164 20.9211 17.6101 20.7258C19.032 20.2493 20.2507 19.0345 20.7233 17.6205C20.9225 17.015 20.9772 16.6674 20.9772 15.9994C20.9772 15.1245 20.8093 14.4096 20.4304 13.6948C19.7077 12.3394 18.4656 11.4058 16.9578 11.0972C16.5828 11.0191 15.7313 10.9879 15.3602 11.0426ZM17.0047 12.8316C17.4226 12.9683 17.5359 13.023 17.8562 13.2378C18.5125 13.6792 18.9538 14.2925 19.2077 15.101C19.2859 15.3549 19.3015 15.476 19.3015 15.9994C19.3015 16.6439 19.2546 16.8822 19.0242 17.3939C18.7351 18.0501 18.0515 18.7337 17.3914 19.0267C16.8836 19.2532 16.6453 19.3001 16.0008 19.3001C15.3563 19.3001 15.118 19.2532 14.6102 19.0267C13.9501 18.7337 13.2665 18.0501 12.9775 17.3939C12.747 16.8822 12.7001 16.6439 12.7001 15.9994C12.7001 15.476 12.7158 15.3549 12.7939 15.101C12.9267 14.6792 13.0439 14.4331 13.2665 14.1089C13.7079 13.4683 14.3251 13.0269 15.0829 12.8042C15.4696 12.6909 15.5282 12.6831 16.118 12.6988C16.5828 12.7105 16.6883 12.7261 17.0047 12.8316Z" fill="black"/>
</svg>
