<svg width="260" height="66" viewBox="0 0 260 66" fill="none" xmlns="http://www.w3.org/2000/svg">
<path d="M19.459 24.7L33.959 45H5.95898V10.2H33.959L19.459 24.7ZM18.159 26L7.80898 36.35V43.15H30.409L18.159 26ZM41.4707 23.75C41.4707 21.15 42.1207 18.7333 43.4207 16.5C44.7207 14.2667 46.4707 12.5 48.6707 11.2C50.904 9.9 53.3374 9.25 55.9707 9.25C58.604 9.25 61.0207 9.9 63.2207 11.2C65.454 12.5 67.2207 14.2667 68.5207 16.5C69.8207 18.7333 70.4707 21.15 70.4707 23.75V31.45C70.4707 34.05 69.8207 36.4667 68.5207 38.7C67.2207 40.9333 65.454 42.7 63.2207 44C61.0207 45.3 58.604 45.95 55.9707 45.95C53.3374 45.95 50.904 45.3 48.6707 44C46.4707 42.7 44.7207 40.9333 43.4207 38.7C42.1207 36.4667 41.4707 34.05 41.4707 31.45V23.75ZM50.5707 31.45C50.5707 33.05 51.0707 34.4167 52.0707 35.55C53.0707 36.6833 54.3707 37.25 55.9707 37.25C57.5374 37.25 58.8207 36.6833 59.8207 35.55C60.8207 34.4167 61.3207 33.05 61.3207 31.45V23.7C61.3207 22.0667 60.8207 20.7 59.8207 19.6C58.8207 18.5 57.5374 17.95 55.9707 17.95C54.3707 17.95 53.0707 18.5 52.0707 19.6C51.0707 20.7 50.5707 22.0667 50.5707 23.7V31.45ZM107.382 45H80.6324V10.2H94.1824C97.0824 10.2 99.4491 10.7167 101.282 11.75C103.082 12.75 104.482 14.1167 105.482 15.85C106.482 17.5833 106.982 19.5 106.982 21.6C106.982 24.2 106.182 26.5333 104.582 28.6C102.982 30.6333 100.966 31.9833 98.5324 32.65L107.382 45ZM83.7824 12.05L97.3824 31.05C99.6158 30.5833 101.466 29.4667 102.932 27.7C104.399 25.9333 105.132 23.9 105.132 21.6C105.132 19.7667 104.682 18.1 103.782 16.6C102.882 15.1 101.616 13.95 99.9824 13.15C98.5158 12.4167 96.5991 12.05 94.2324 12.05H83.7824ZM82.4824 13.25V31.2H95.3324L82.4824 13.25ZM82.4824 43.15H103.882L96.5824 33L95.0324 33.05H82.4824V43.15ZM169.456 10.2C171.656 10.2 173.406 10.5333 174.706 11.2C176.273 12 177.473 13.1 178.306 14.5C179.173 15.9 179.606 17.4667 179.606 19.2C179.606 20.8333 179.173 22.35 178.306 23.75C177.439 25.1167 176.256 26.2 174.756 27C176.556 27.6333 178.073 28.7333 179.306 30.3C180.539 31.8667 181.156 33.6333 181.156 35.6C181.156 37.3333 180.706 38.9333 179.806 40.4C178.939 41.8333 177.773 42.9667 176.306 43.8C175.573 44.2 174.756 44.5 173.856 44.7C172.956 44.9 171.756 45 170.256 45H154.856V10.2H169.456ZM204.518 24.7L219.018 45H191.018V10.2H219.018L204.518 24.7ZM203.218 26L192.868 36.35V43.15H215.468L203.218 26ZM226.529 23.75C226.529 21.15 227.179 18.7333 228.479 16.5C229.779 14.2667 231.529 12.5 233.729 11.2C235.963 9.9 238.396 9.25 241.029 9.25C243.663 9.25 246.079 9.9 248.279 11.2C250.513 12.5 252.279 14.2667 253.579 16.5C254.879 18.7333 255.529 21.15 255.529 23.75V31.45C255.529 34.05 254.879 36.4667 253.579 38.7C252.279 40.9333 250.513 42.7 248.279 44C246.079 45.3 243.663 45.95 241.029 45.95C238.396 45.95 235.963 45.3 233.729 44C231.529 42.7 229.779 40.9333 228.479 38.7C227.179 36.4667 226.529 34.05 226.529 31.45V23.75ZM235.629 31.45C235.629 33.05 236.129 34.4167 237.129 35.55C238.129 36.6833 239.429 37.25 241.029 37.25C242.596 37.25 243.879 36.6833 244.879 35.55C245.879 34.4167 246.379 33.05 246.379 31.45V23.7C246.379 22.0667 245.879 20.7 244.879 19.6C243.879 18.5 242.596 17.95 241.029 17.95C239.429 17.95 238.129 18.5 237.129 19.6C236.129 20.7 235.629 22.0667 235.629 23.7V31.45Z" fill="#FF0027"/>
<path d="M43.7791 56.672L42.7551 52.864H49.3631L46.3711 64H45.7471L44.0831 57.808L42.4191 64H41.7951L38.8031 52.864H39.4111L42.0991 62.896L43.7791 56.672ZM48.5951 53.456H43.5231L44.3871 56.672L46.0671 62.896L48.5951 53.456ZM61.6869 52.864H69.7989V55.68H64.5989V57.088H68.9189V59.76H64.5989V61.184H69.7989V64H61.6869V52.864ZM88.0746 52.864C88.7786 52.864 89.3386 52.9707 89.7546 53.184C90.256 53.44 90.64 53.792 90.9066 54.24C91.184 54.688 91.3226 55.1893 91.3226 55.744C91.3226 56.2667 91.184 56.752 90.9066 57.2C90.6293 57.6373 90.2506 57.984 89.7706 58.24C90.3466 58.4427 90.832 58.7947 91.2266 59.296C91.6213 59.7973 91.8186 60.3627 91.8186 60.992C91.8186 61.5467 91.6746 62.0587 91.3866 62.528C91.1093 62.9867 90.736 63.3493 90.2666 63.616C90.032 63.744 89.7706 63.84 89.4826 63.904C89.1946 63.968 88.8106 64 88.3306 64H83.4026V52.864H88.0746Z" fill="#FF0027"/>
<path d="M108.974 64.288C107.428 64.288 106.233 63.9253 105.39 63.2C104.558 62.464 104.148 61.3653 104.158 59.904H106.766C106.756 60.512 106.937 60.976 107.31 61.296C107.684 61.616 108.206 61.776 108.878 61.776C109.433 61.776 109.87 61.6853 110.19 61.504C110.51 61.3227 110.67 61.0453 110.67 60.672C110.67 60.3627 110.505 60.1387 110.174 60C109.854 59.8613 109.534 59.7653 109.214 59.712C108.894 59.648 108.697 59.6107 108.622 59.6C107.801 59.44 107.092 59.248 106.494 59.024C105.897 58.7893 105.396 58.4373 104.99 57.968C104.585 57.4987 104.382 56.88 104.382 56.112C104.382 55.344 104.585 54.6933 104.99 54.16C105.396 53.616 105.934 53.2107 106.606 52.944C107.289 52.6773 108.03 52.544 108.83 52.544C109.801 52.544 110.638 52.7253 111.342 53.088C112.057 53.4507 112.617 54 113.022 54.736C113.225 55.088 113.348 55.4293 113.39 55.76C113.433 56.08 113.454 56.3947 113.454 56.704H110.846C110.846 56.128 110.692 55.7067 110.382 55.44C110.073 55.1627 109.593 55.024 108.942 55.024C108.42 55.024 108.014 55.1147 107.726 55.296C107.438 55.4773 107.294 55.7227 107.294 56.032C107.294 56.3733 107.486 56.624 107.87 56.784C108.254 56.944 108.74 57.088 109.326 57.216C110.286 57.408 111.033 57.5947 111.566 57.776C112.11 57.9467 112.58 58.256 112.974 58.704C113.369 59.152 113.566 59.7813 113.566 60.592C113.566 61.36 113.353 62.0213 112.926 62.576C112.5 63.1307 111.934 63.5573 111.23 63.856C110.537 64.144 109.785 64.288 108.974 64.288ZM130.21 64V55.68H126.002V52.864H134.994V55.68H130.786V64H130.21ZM152.102 64.24C151.291 64.24 150.539 64.0373 149.846 63.632C149.163 63.2267 148.619 62.6827 148.214 62C147.809 61.3067 147.606 60.5547 147.606 59.744V52.864H156.598V59.744C156.598 60.5547 156.395 61.3067 155.99 62C155.585 62.6827 155.035 63.2267 154.342 63.632C153.659 64.0373 152.913 64.24 152.102 64.24ZM169.706 64V52.864H173.85C174.66 52.864 175.407 53.0667 176.09 53.472C176.783 53.8773 177.332 54.4267 177.738 55.12C178.143 55.8027 178.346 56.5493 178.346 57.36V59.504C178.346 60.3147 178.143 61.0667 177.738 61.76C177.332 62.4427 176.783 62.9867 176.09 63.392C175.407 63.7973 174.66 64 173.85 64H169.706ZM191.709 55.68V52.864H198.909V55.68H195.597V61.184H198.909V64H191.709V61.184H195.021V55.68H191.709ZM212.273 57.2C212.273 56.368 212.481 55.5947 212.897 54.88C213.313 54.1653 213.873 53.6 214.577 53.184C215.292 52.768 216.07 52.56 216.913 52.56C217.756 52.56 218.529 52.768 219.233 53.184C219.948 53.6 220.513 54.1653 220.929 54.88C221.345 55.5947 221.553 56.368 221.553 57.2V59.664C221.553 60.496 221.345 61.2693 220.929 61.984C220.513 62.6987 219.948 63.264 219.233 63.68C218.529 64.096 217.756 64.304 216.913 64.304C216.07 64.304 215.292 64.096 214.577 63.68C213.873 63.264 213.313 62.6987 212.897 61.984C212.481 61.2693 212.273 60.496 212.273 59.664V57.2ZM215.185 59.664C215.185 60.176 215.345 60.6133 215.665 60.976C215.985 61.3387 216.401 61.52 216.913 61.52C217.414 61.52 217.825 61.3387 218.145 60.976C218.465 60.6133 218.625 60.176 218.625 59.664V57.184C218.625 56.6613 218.465 56.224 218.145 55.872C217.825 55.52 217.414 55.344 216.913 55.344C216.401 55.344 215.985 55.52 215.665 55.872C215.345 56.224 215.185 56.6613 215.185 57.184V59.664Z" fill="#FFCD00"/>
<path d="M130.999 9.68677C130.352 9.68677 129.827 10.2115 129.827 10.8586C129.827 11.5058 130.352 12.0305 130.999 12.0305C134.877 12.0305 138.031 15.1847 138.031 19.0618C138.031 19.709 138.556 20.2336 139.203 20.2336C139.85 20.2336 140.375 19.709 140.375 19.0618C140.375 13.8924 136.169 9.68677 130.999 9.68677Z" fill="#FFCD00"/>
<path d="M127.979 5.3149C122.685 6.42123 118.392 10.6731 117.262 16.0005C116.308 20.4991 117.483 25.0155 120.487 28.3917C121.955 30.0419 122.797 32.2203 122.797 34.3743V36.718C122.797 38.2774 123.817 39.6022 125.226 40.061C125.689 42.7973 128.064 44.9992 131 44.9992C133.935 44.9992 136.31 42.798 136.774 40.061C138.182 39.6022 139.203 38.2774 139.203 36.7179V34.3742C139.203 32.216 140.048 30.0638 141.581 28.3141C143.826 25.7532 145.062 22.4672 145.062 19.0618C145.062 10.1895 136.941 3.44255 127.979 5.3149ZM131 42.6555C129.493 42.6555 128.173 41.619 127.685 40.2258H134.315C133.827 41.619 132.506 42.6555 131 42.6555ZM136.859 36.718C136.859 37.3642 136.333 37.8899 135.687 37.8899H126.312C125.666 37.8899 125.14 37.3642 125.14 36.718V35.5461H136.859V36.718ZM139.819 26.7694C138.184 28.634 137.179 30.8824 136.924 33.2024H125.076C124.821 30.8811 123.818 28.6106 122.238 26.834C119.735 24.0202 118.757 20.2487 119.555 16.4867C120.486 12.095 124.064 8.5274 128.458 7.60919C135.96 6.04146 142.718 11.6752 142.718 19.0618C142.718 21.8986 141.689 24.6359 139.819 26.7694Z" fill="#FFCD00"/>
<path d="M114.516 19.0618H112.172C111.525 19.0618 111 19.5865 111 20.2336C111 20.8808 111.525 21.4055 112.172 21.4055H114.516C115.163 21.4055 115.688 20.8808 115.688 20.2336C115.688 19.5865 115.163 19.0618 114.516 19.0618Z" fill="#FFCD00"/>
<path d="M115.001 13.2024L113.344 11.5451C112.886 11.0875 112.144 11.0875 111.687 11.5451C111.229 12.0028 111.229 12.7448 111.687 13.2024L113.344 14.8597C113.801 15.3173 114.543 15.3174 115.001 14.8597C115.459 14.402 115.459 13.6601 115.001 13.2024Z" fill="#FFCD00"/>
<path d="M115.001 25.6076C114.543 25.15 113.801 25.15 113.344 25.6076L111.687 27.2649C111.229 27.7226 111.229 28.4645 111.687 28.9222C112.144 29.3798 112.886 29.3799 113.344 28.9222L115.001 27.2649C115.459 26.8073 115.459 26.0653 115.001 25.6076Z" fill="#FFCD00"/>
<path d="M149.828 19.0618H147.484C146.837 19.0618 146.312 19.5865 146.312 20.2336C146.312 20.8808 146.837 21.4055 147.484 21.4055H149.828C150.475 21.4055 151 20.8808 151 20.2336C151 19.5865 150.475 19.0618 149.828 19.0618Z" fill="#FFCD00"/>
<path d="M150.314 11.5451C149.856 11.0875 149.114 11.0875 148.656 11.5451L146.999 13.2024C146.541 13.6601 146.541 14.402 146.999 14.8597C147.457 15.3173 148.199 15.3173 148.656 14.8597L150.314 13.2024C150.771 12.7448 150.771 12.0028 150.314 11.5451Z" fill="#FFCD00"/>
<path d="M150.314 27.2649L148.656 25.6076C148.199 25.15 147.457 25.15 146.999 25.6076C146.541 26.0653 146.541 26.8073 146.999 27.2649L148.656 28.9222C149.114 29.3798 149.856 29.3798 150.314 28.9222C150.771 28.4645 150.771 27.7226 150.314 27.2649Z" fill="#FFCD00"/>
</svg>
