<svg width="118" height="36" viewBox="0 0 118 36" fill="none" xmlns="http://www.w3.org/2000/svg">
<path d="M3.3877 29.0186C3.21191 29.0186 3.00684 28.96 2.77246 28.8428C2.54785 28.7256 2.33301 28.5791 2.12793 28.4033C1.92285 28.2275 1.74707 28.0322 1.60059 27.8174C1.46387 27.6025 1.39551 27.3975 1.39551 27.2021V22.3975C1.39551 22.1924 1.36133 21.9971 1.29297 21.8115C1.23438 21.6162 1.16602 21.4258 1.08789 21.2402C1.00977 21.0449 0.941406 20.8496 0.882812 20.6543C0.814453 20.4492 0.780273 20.2393 0.780273 20.0244C0.780273 19.2334 0.80957 18.4375 0.868164 17.6367C0.926758 16.8262 0.990234 16.0205 1.05859 15.2197C1.13672 14.4092 1.20996 13.6035 1.27832 12.8027C1.34668 12.002 1.38574 11.2012 1.39551 10.4004C1.41504 10.2539 1.46387 10.1416 1.54199 10.0635C1.62012 9.97559 1.71289 9.91211 1.82031 9.87305C1.92773 9.83398 2.04492 9.80957 2.17188 9.7998C2.29883 9.79004 2.4209 9.78516 2.53809 9.78516C3.08496 9.78516 3.52441 9.88281 3.85645 10.0781C4.18848 10.2734 4.44238 10.5322 4.61816 10.8545C4.80371 11.1768 4.93066 11.543 4.99902 11.9531C5.07715 12.3535 5.13086 12.7686 5.16016 13.1982C5.18945 13.6279 5.21875 14.0479 5.24805 14.458C5.27734 14.8584 5.34082 15.2197 5.43848 15.542C5.5459 15.8643 5.70215 16.123 5.90723 16.3184C6.1123 16.5137 6.41016 16.6113 6.80078 16.6113C7.34766 16.6113 7.85547 16.4941 8.32422 16.2598C8.79297 16.0156 9.2373 15.7178 9.65723 15.3662C10.0771 15.0049 10.4873 14.6191 10.8877 14.209C11.2881 13.7891 11.6934 13.4033 12.1035 13.0518C12.5234 12.6904 12.9629 12.3926 13.4219 12.1582C13.8809 11.9141 14.374 11.792 14.9014 11.792C15.0869 11.792 15.3311 11.8213 15.6338 11.8799C15.9463 11.9385 16.249 12.0264 16.542 12.1436C16.835 12.2607 17.0889 12.4121 17.3037 12.5977C17.5186 12.7832 17.626 13.0078 17.626 13.2715C17.626 13.5938 17.46 13.9258 17.1279 14.2676C16.7959 14.6094 16.3564 14.9609 15.8096 15.3223C15.2627 15.6738 14.6377 16.0352 13.9346 16.4062C13.2412 16.7676 12.5332 17.1289 11.8105 17.4902C11.0879 17.8516 10.375 18.2129 9.67188 18.5742C8.97852 18.9258 8.3584 19.2725 7.81152 19.6143C7.26465 19.9561 6.8252 20.2881 6.49316 20.6104C6.16113 20.9229 5.99512 21.2207 5.99512 21.5039C5.99512 21.6211 6.05371 21.7383 6.1709 21.8555C6.28809 21.9727 6.4248 22.085 6.58105 22.1924C6.7373 22.29 6.89355 22.3779 7.0498 22.4561C7.20605 22.5244 7.32324 22.5732 7.40137 22.6025C7.66504 22.7002 8.0752 22.8613 8.63184 23.0859C9.18848 23.3008 9.81348 23.5449 10.5068 23.8184C11.2002 24.0918 11.9326 24.3848 12.7041 24.6973C13.4756 25 14.208 25.2881 14.9014 25.5615C15.5947 25.835 16.2197 26.084 16.7764 26.3086C17.333 26.5234 17.7432 26.6846 18.0068 26.792C18.1045 26.8311 18.2949 26.9141 18.5781 27.041C18.8711 27.168 19.1836 27.3096 19.5156 27.4658C19.8574 27.6123 20.1846 27.7539 20.4971 27.8906C20.8193 28.0273 21.0537 28.1299 21.2002 28.1982C21.2588 28.2275 21.4053 28.291 21.6396 28.3887C21.8838 28.4863 22.1377 28.6084 22.4014 28.7549C22.665 28.8916 22.8994 29.0479 23.1045 29.2236C23.3193 29.3994 23.4268 29.585 23.4268 29.7803C23.4268 29.9854 23.3682 30.1074 23.251 30.1465C23.1436 30.1953 23.0068 30.2197 22.8408 30.2197H22.6797C21.8105 30.2197 20.9561 30.0977 20.1162 29.8535C19.2861 29.5996 18.4561 29.2871 17.626 28.916C16.8057 28.5352 15.9854 28.1299 15.165 27.7002C14.3545 27.2607 13.5342 26.8555 12.7041 26.4844C11.874 26.1035 11.0342 25.791 10.1846 25.5469C9.34473 25.293 8.48535 25.166 7.60645 25.166C7.01074 25.166 6.53223 25.2637 6.1709 25.459C5.81934 25.6445 5.53613 25.8789 5.32129 26.1621C5.11621 26.4453 4.95508 26.7578 4.83789 27.0996C4.73047 27.4316 4.61816 27.7393 4.50098 28.0225C4.38379 28.3057 4.24219 28.5449 4.07617 28.7402C3.91992 28.9258 3.69043 29.0186 3.3877 29.0186ZM19.5742 13.4473C19.7793 13.4473 19.9795 13.4326 20.1748 13.4033C20.3701 13.374 20.5068 13.3057 20.585 13.1982C20.7412 13.0029 20.873 12.749 20.9805 12.4365C21.0977 12.124 21.21 11.792 21.3174 11.4404C21.4346 11.0791 21.5566 10.7178 21.6836 10.3564C21.8105 9.99512 21.9619 9.66797 22.1377 9.375C22.3232 9.08203 22.5381 8.84277 22.7822 8.65723C23.0361 8.47168 23.3438 8.37891 23.7051 8.37891C23.8516 8.37891 23.9785 8.39355 24.0859 8.42285C24.2031 8.44238 24.3154 8.47656 24.4229 8.52539C24.54 8.57422 24.6572 8.6377 24.7744 8.71582C24.8916 8.79395 25.0283 8.88672 25.1846 8.99414C26.249 9.01367 27.2012 9.17969 28.041 9.49219C28.8809 9.79492 29.6182 10.21 30.2529 10.7373C30.8975 11.2646 31.4443 11.8848 31.8936 12.5977C32.3428 13.3105 32.709 14.0869 32.9922 14.9268C33.2754 15.7568 33.4805 16.6406 33.6074 17.5781C33.7344 18.5059 33.7979 19.4482 33.7979 20.4053C33.7979 21.1377 33.7246 21.875 33.5781 22.6172C33.4316 23.3594 33.2119 24.0723 32.9189 24.7559C32.6357 25.4297 32.2793 26.0645 31.8496 26.6602C31.4199 27.2559 30.9219 27.7734 30.3555 28.2129C29.7988 28.6426 29.1689 28.9844 28.4658 29.2383C27.7725 29.4922 27.0156 29.6191 26.1953 29.6191C25.3359 29.6191 24.4863 29.5117 23.6465 29.2969C22.8066 29.0723 22.0059 28.7598 21.2441 28.3594C20.4824 27.959 19.7793 27.4756 19.1348 26.9092C18.4902 26.333 17.9336 25.6982 17.4648 25.0049C16.9961 24.3115 16.6299 23.5596 16.3662 22.749C16.0928 21.9385 15.9561 21.0889 15.9561 20.2002C15.9561 19.9365 15.9756 19.5996 16.0146 19.1895C16.0439 18.7695 16.1025 18.3203 16.1904 17.8418C16.2686 17.3633 16.376 16.875 16.5127 16.377C16.6494 15.8789 16.8203 15.4199 17.0254 15C17.2402 14.5801 17.4893 14.2285 17.7725 13.9453C18.0654 13.6523 18.4023 13.4717 18.7832 13.4033C18.8613 13.4131 18.9443 13.418 19.0322 13.418C19.1104 13.4277 19.1934 13.4375 19.2812 13.4473C19.3691 13.4473 19.4668 13.4473 19.5742 13.4473ZM19.3691 19.8926C19.3691 20.7031 19.4668 21.5088 19.6621 22.3096C19.8574 23.1104 20.1602 23.833 20.5703 24.4775C20.9902 25.1123 21.5273 25.6299 22.1816 26.0303C22.8457 26.4209 23.6465 26.6162 24.584 26.6162C25.1504 26.6162 25.6582 26.4941 26.1074 26.25C26.5664 26.0059 26.9717 25.6836 27.3232 25.2832C27.6846 24.873 27.9922 24.4092 28.2461 23.8916C28.5098 23.3643 28.7246 22.8223 28.8906 22.2656C29.0664 21.709 29.1934 21.1572 29.2715 20.6104C29.3594 20.0537 29.4033 19.5508 29.4033 19.1016C29.4033 18.8379 29.3789 18.4619 29.3301 17.9736C29.291 17.4854 29.2227 16.958 29.125 16.3916C29.0273 15.8154 28.9004 15.2344 28.7441 14.6484C28.5977 14.0527 28.417 13.5156 28.2021 13.0371C27.9873 12.5488 27.7383 12.1533 27.4551 11.8506C27.1816 11.5381 26.8691 11.3818 26.5176 11.3818C26.3711 11.3818 26.2393 11.3916 26.1221 11.4111C26.0146 11.4307 25.9023 11.4941 25.7852 11.6016C25.6973 11.6797 25.5459 11.8213 25.3311 12.0264C25.126 12.2314 24.9062 12.4512 24.6719 12.6855C24.4375 12.9199 24.2178 13.1445 24.0127 13.3594C23.8076 13.5645 23.666 13.7109 23.5879 13.7988C23.5098 13.8867 23.417 14.0283 23.3096 14.2236C23.2119 14.4092 23.1045 14.624 22.9873 14.8682C22.8799 15.1025 22.7627 15.3467 22.6357 15.6006C22.5186 15.8447 22.3965 16.0742 22.2695 16.2891C22.1523 16.4941 22.0352 16.665 21.918 16.8018C21.8008 16.9287 21.6885 16.9922 21.5811 16.9922H19.9844C19.9551 16.9922 19.8867 17.0459 19.7793 17.1533C19.6816 17.2607 19.6182 17.3438 19.5889 17.4023C19.501 17.5586 19.4424 17.7539 19.4131 17.9883C19.3838 18.2129 19.3643 18.4473 19.3545 18.6914C19.3447 18.9258 19.3447 19.1504 19.3545 19.3652C19.3643 19.5801 19.3691 19.7559 19.3691 19.8926ZM35.5703 13.1982C35.5312 12.9248 35.4043 12.7295 35.1895 12.6123C34.9746 12.4951 34.7207 12.417 34.4277 12.3779C34.125 12.3389 33.8076 12.3193 33.4756 12.3193C33.1436 12.3096 32.8359 12.2803 32.5527 12.2314C32.2598 12.1826 32.0205 12.0947 31.835 11.9678C31.6494 11.8311 31.5566 11.6113 31.5566 11.3086C31.5566 11.0938 31.6104 10.9424 31.7178 10.8545C31.8154 10.7568 31.9668 10.6738 32.1719 10.6055C32.3086 10.6152 32.4453 10.625 32.582 10.6348C32.709 10.6348 32.8359 10.6348 32.9629 10.6348C33.4316 10.6348 33.8711 10.6055 34.2812 10.5469C34.6816 10.4785 35.0771 10.4053 35.4678 10.3271C35.8486 10.2393 36.2393 10.166 36.6396 10.1074C37.0498 10.0391 37.4941 10.0049 37.9727 10.0049H45.1797C45.4043 10.0049 45.7119 10.0293 46.1025 10.0781C46.5029 10.1172 46.9521 10.1807 47.4502 10.2686C47.958 10.3564 48.4951 10.4639 49.0615 10.5908C49.6279 10.7178 50.1895 10.8643 50.7461 11.0303C51.3027 11.1865 51.835 11.3672 52.3428 11.5723C52.8604 11.7676 53.3145 11.9824 53.7051 12.2168C54.0957 12.4414 54.4082 12.6855 54.6426 12.9492C54.877 13.2031 54.9941 13.4766 54.9941 13.7695C54.9941 14.2676 54.8965 14.7217 54.7012 15.1318C54.5156 15.542 54.2666 15.9229 53.9541 16.2744C53.6514 16.626 53.2998 16.9531 52.8994 17.2559C52.499 17.5586 52.0938 17.8613 51.6836 18.1641C51.2734 18.457 50.8682 18.7598 50.4678 19.0723C50.0674 19.375 49.7109 19.6973 49.3984 20.0391C49.0957 20.3809 48.8467 20.7568 48.6514 21.167C48.4658 21.5674 48.373 22.0117 48.373 22.5C48.373 22.9688 48.4805 23.3984 48.6953 23.7891C48.9199 24.1797 49.1934 24.5557 49.5156 24.917C49.8477 25.2686 50.2041 25.6152 50.585 25.957C50.9756 26.2891 51.332 26.6357 51.6543 26.9971C51.9863 27.3584 52.2598 27.7441 52.4746 28.1543C52.6992 28.5645 52.8115 29.0186 52.8115 29.5166C52.8115 29.8291 52.7285 30.0879 52.5625 30.293C52.4062 30.5078 52.1572 30.6152 51.8154 30.6152C51.5225 30.6152 51.2051 30.498 50.8633 30.2637C50.5215 30.0391 50.1553 29.7412 49.7646 29.3701C49.374 28.9893 48.959 28.5596 48.5195 28.0811C48.0898 27.5928 47.6406 27.0996 47.1719 26.6016C46.7031 26.1035 46.2197 25.6152 45.7217 25.1367C45.2236 24.6484 44.7158 24.2188 44.1982 23.8477C43.6807 23.4668 43.1484 23.1641 42.6016 22.9395C42.0645 22.7051 41.5225 22.5879 40.9756 22.5879C40.6729 22.5879 40.4385 22.666 40.2725 22.8223C40.1064 22.9785 39.9795 23.1836 39.8916 23.4375C39.8135 23.6914 39.7598 23.9844 39.7305 24.3164C39.7109 24.6387 39.6914 24.9707 39.6719 25.3125C39.6621 25.6543 39.6377 25.9912 39.5986 26.3232C39.5693 26.6455 39.501 26.9336 39.3936 27.1875C39.2959 27.4414 39.1494 27.6465 38.9541 27.8027C38.7686 27.959 38.5098 28.0371 38.1777 28.0371C37.8262 28.0371 37.5283 27.9004 37.2842 27.627C37.04 27.3438 36.835 26.9873 36.6689 26.5576C36.5127 26.1182 36.3906 25.6348 36.3027 25.1074C36.2148 24.5801 36.1465 24.0723 36.0977 23.584C36.0586 23.0957 36.0293 22.6562 36.0098 22.2656C36 21.8652 35.9902 21.5771 35.9805 21.4014C35.9414 20.5127 35.9121 19.7363 35.8926 19.0723C35.873 18.3984 35.8486 17.7588 35.8193 17.1533C35.7998 16.5479 35.7754 15.9375 35.7461 15.3223C35.707 14.6973 35.6484 13.9893 35.5703 13.1982ZM39.3643 13.0518C39.3643 13.3252 39.3643 13.6475 39.3643 14.0186C39.3643 14.3896 39.3789 14.7754 39.4082 15.1758C39.4473 15.5664 39.5059 15.957 39.584 16.3477C39.6621 16.7285 39.7793 17.0752 39.9355 17.3877C40.1016 17.6904 40.3066 17.9395 40.5508 18.1348C40.8047 18.3203 41.1172 18.4131 41.4883 18.4131C41.7031 18.4131 42.0693 18.3447 42.5869 18.208C43.1143 18.0713 43.7051 17.8857 44.3594 17.6514C45.0234 17.417 45.707 17.1436 46.4102 16.8311C47.123 16.5186 47.7725 16.1865 48.3584 15.835C48.9541 15.4736 49.4424 15.1025 49.8232 14.7217C50.2041 14.3408 50.3945 13.9697 50.3945 13.6084C50.3945 13.3643 50.3262 13.1641 50.1895 13.0078C50.0527 12.8418 49.877 12.71 49.6621 12.6123C49.4473 12.5049 49.208 12.4268 48.9443 12.3779C48.6807 12.3193 48.4219 12.2803 48.168 12.2607C47.9141 12.2314 47.6797 12.2168 47.4648 12.2168C47.2598 12.207 47.0986 12.2021 46.9814 12.2021C46.9619 12.2021 46.8789 12.2021 46.7324 12.2021C46.5859 12.1924 46.4053 12.1875 46.1904 12.1875C45.9756 12.1875 45.7363 12.1875 45.4727 12.1875C45.2188 12.1875 44.96 12.1875 44.6963 12.1875C44.4326 12.1875 44.1836 12.1875 43.9492 12.1875C43.7246 12.1875 43.5342 12.1875 43.3779 12.1875C43.2412 12.1875 43.002 12.1875 42.6602 12.1875C42.3184 12.1875 41.957 12.1875 41.5762 12.1875C41.1953 12.1875 40.834 12.1924 40.4922 12.2021C40.1504 12.2021 39.9111 12.2021 39.7744 12.2021C39.54 12.2705 39.4131 12.3877 39.3936 12.5537C39.374 12.71 39.3643 12.876 39.3643 13.0518Z" fill="#2C1F24"/>
<path d="M92.8994 26.8213C93.4658 26.8213 94.0127 26.7285 94.54 26.543C95.0674 26.3477 95.5801 26.1377 96.0781 25.9131C96.5859 25.6787 97.0889 25.4688 97.5869 25.2832C98.085 25.0879 98.5928 24.9902 99.1104 24.9902C99.3252 24.9902 99.4961 25.0635 99.623 25.21C99.75 25.3467 99.8135 25.5127 99.8135 25.708C99.8135 26.0986 99.7158 26.4697 99.5205 26.8213C99.335 27.1729 99.0811 27.5 98.7588 27.8027C98.4463 28.1055 98.085 28.3838 97.6748 28.6377C97.2744 28.8818 96.8643 29.0918 96.4443 29.2676C96.0244 29.4434 95.6094 29.5801 95.1992 29.6777C94.7988 29.7656 94.4375 29.8096 94.1152 29.8096C93.0605 29.8096 92.0352 29.6387 91.0391 29.2969C90.043 28.9551 89.1543 28.4717 88.373 27.8467C87.6016 27.2119 86.9766 26.4502 86.498 25.5615C86.0293 24.6729 85.7949 23.6816 85.7949 22.5879C85.7949 22.0898 85.8828 21.6553 86.0586 21.2842C86.2344 20.9033 86.4443 20.5469 86.6885 20.2148C86.9424 19.873 87.2061 19.5312 87.4795 19.1895C87.7627 18.8379 88.002 18.4424 88.1973 18.0029C88.5 17.3486 88.7295 16.7041 88.8857 16.0693C89.0518 15.4248 89.2178 14.8145 89.3838 14.2383C89.5498 13.6523 89.7402 13.1152 89.9551 12.627C90.1797 12.1289 90.4971 11.6992 90.9072 11.3379C91.3174 10.9766 91.8545 10.6934 92.5186 10.4883C93.1826 10.2832 94.0371 10.1807 95.082 10.1807C95.6973 10.1807 96.2881 10.2832 96.8545 10.4883C97.4307 10.6934 97.9385 10.9814 98.3779 11.3525C98.8174 11.7236 99.1641 12.1777 99.418 12.7148C99.6816 13.2422 99.8135 13.8379 99.8135 14.502C99.8135 14.7754 99.7939 15 99.7549 15.1758C99.7158 15.3418 99.6426 15.4736 99.5352 15.5713C99.4375 15.6689 99.3008 15.7373 99.125 15.7764C98.959 15.8057 98.7393 15.8203 98.4658 15.8203C98.1143 15.8203 97.7969 15.7666 97.5137 15.6592C97.2402 15.5518 96.9814 15.4053 96.7373 15.2197C96.5029 15.0342 96.2783 14.8193 96.0635 14.5752C95.8486 14.3311 95.6289 14.0723 95.4043 13.7988H94.8037C94.5596 13.7988 94.3057 13.9209 94.042 14.165C93.7783 14.4092 93.5146 14.7363 93.251 15.1465C92.9873 15.5469 92.7285 16.0156 92.4746 16.5527C92.2207 17.0801 91.9814 17.6318 91.7568 18.208C91.5322 18.7842 91.3223 19.3604 91.127 19.9365C90.9316 20.5127 90.7656 21.0547 90.6289 21.5625C90.4922 22.0703 90.3848 22.5244 90.3066 22.9248C90.2285 23.3154 90.1895 23.6084 90.1895 23.8037C90.1895 24.0674 90.2041 24.3555 90.2334 24.668C90.2725 24.9805 90.3408 25.2783 90.4385 25.5615C90.5459 25.8447 90.6924 26.0986 90.8779 26.3232C91.0635 26.5479 91.3027 26.7041 91.5957 26.792C91.6445 26.792 91.7324 26.7969 91.8594 26.8066C91.9863 26.8066 92.1182 26.8115 92.2549 26.8213C92.3916 26.8213 92.5186 26.8213 92.6357 26.8213C92.7627 26.8213 92.8506 26.8213 92.8994 26.8213ZM110.009 25.5908C109.53 25.5908 109.101 25.5957 108.72 25.6055C108.339 25.6055 107.958 25.6152 107.577 25.6348C107.206 25.6445 106.811 25.6641 106.391 25.6934C105.971 25.7129 105.478 25.7471 104.911 25.7959C104.687 25.874 104.481 26.0156 104.296 26.2207C104.12 26.416 103.954 26.6455 103.798 26.9092C103.651 27.1631 103.52 27.4365 103.402 27.7295C103.285 28.0225 103.183 28.3057 103.095 28.5791C103.007 28.8428 102.929 29.0869 102.86 29.3115C102.802 29.5264 102.753 29.6875 102.714 29.7949C102.616 29.9609 102.528 30.0977 102.45 30.2051C102.382 30.3125 102.309 30.3955 102.23 30.4541C102.152 30.5127 102.069 30.5518 101.981 30.5713C101.894 30.6006 101.781 30.6152 101.645 30.6152C101.312 30.6152 101.044 30.5371 100.839 30.3809C100.634 30.2344 100.478 30.0439 100.37 29.8096C100.263 29.5752 100.189 29.3164 100.15 29.0332C100.111 28.75 100.092 28.4814 100.092 28.2275C100.092 27.5342 100.16 26.7285 100.297 25.8105C100.424 24.8828 100.619 23.9014 100.883 22.8662C101.137 21.8311 101.454 20.7715 101.835 19.6875C102.216 18.5938 102.65 17.5342 103.139 16.5088C103.627 15.4834 104.164 14.5166 104.75 13.6084C105.346 12.6904 105.99 11.8896 106.684 11.2061C107.377 10.5225 108.114 9.98047 108.896 9.58008C109.677 9.17969 110.502 8.97949 111.371 8.97949C111.977 8.97949 112.523 9.13574 113.012 9.44824C113.5 9.76074 113.915 10.1611 114.257 10.6494C114.599 11.1377 114.857 11.6797 115.033 12.2754C115.219 12.8613 115.312 13.4375 115.312 14.0039V21.7969L115.707 23.3936V28.5938C115.707 28.75 115.663 28.8721 115.575 28.96C115.497 29.0381 115.395 29.0967 115.268 29.1357C115.15 29.1748 115.023 29.1992 114.887 29.209C114.75 29.209 114.623 29.209 114.506 29.209C114.086 29.209 113.749 29.1211 113.495 28.9453C113.241 28.7695 113.036 28.5498 112.88 28.2861C112.733 28.0127 112.616 27.7246 112.528 27.4219C112.45 27.1094 112.367 26.8213 112.279 26.5576C112.201 26.2842 112.104 26.0596 111.986 25.8838C111.879 25.6982 111.723 25.6055 111.518 25.6055C111.459 25.6055 111.356 25.6055 111.21 25.6055C111.073 25.5957 110.922 25.5908 110.756 25.5908C110.6 25.5908 110.448 25.5908 110.302 25.5908C110.165 25.5908 110.067 25.5908 110.009 25.5908ZM104.896 22.6465C104.896 22.9102 104.936 23.1201 105.014 23.2764C105.102 23.4326 105.219 23.5547 105.365 23.6426C105.512 23.7207 105.678 23.7695 105.863 23.7891C106.059 23.8086 106.264 23.8184 106.479 23.8184C106.869 23.8184 107.338 23.8086 107.885 23.7891C108.441 23.7598 108.983 23.6963 109.511 23.5986C110.038 23.4912 110.507 23.3301 110.917 23.1152C111.327 22.8906 111.591 22.583 111.708 22.1924C111.708 22.1533 111.708 22.085 111.708 21.9873C111.718 21.8799 111.723 21.7676 111.723 21.6504C111.723 21.5332 111.723 21.4209 111.723 21.3135C111.723 21.2061 111.723 21.1328 111.723 21.0938C111.723 20.9082 111.723 20.6201 111.723 20.2295C111.723 19.8389 111.708 19.3994 111.679 18.9111C111.649 18.4229 111.596 17.9248 111.518 17.417C111.449 16.8994 111.342 16.4307 111.195 16.0107C111.049 15.5908 110.854 15.2441 110.609 14.9707C110.375 14.6973 110.077 14.5605 109.716 14.5605C109.452 14.5605 109.149 14.7412 108.808 15.1025C108.466 15.4639 108.114 15.9229 107.753 16.4795C107.401 17.0361 107.055 17.6465 106.713 18.3105C106.371 18.9648 106.063 19.5947 105.79 20.2002C105.526 20.7959 105.312 21.3184 105.146 21.7676C104.979 22.2168 104.896 22.5098 104.896 22.6465Z" fill="#2C1F24"/>
<g clip-path="url(#clip0_37_43)">
<path d="M70.7162 5.13158C71.657 5.15424 72.5114 5.50217 73.1396 6.05056C73.5453 6.40594 73.8569 6.84512 74.04 7.33703C74.6192 7.18525 75.211 7.10643 75.8001 7.09153C77.3867 7.05118 78.9622 7.47298 80.2313 8.16943C81.5346 8.8836 82.5331 9.89854 82.9232 11.0168C83.0331 11.3312 83.0961 11.6565 83.1039 11.9858L83.1045 12.0503L83.1039 11.9935C83.1039 13.3158 82.1849 14.3915 80.6311 15.1221L77.9073 29.1723L77.8725 29.3498C76.3281 30.694 74.6164 31.4361 72.5887 31.7111L71.7222 31.7959C71.4714 31.8117 71.2203 31.8192 70.9692 31.8192C68.3031 31.8192 65.596 30.9656 63.5435 29.501L63.3675 29.3749L63.3303 29.162L60.8808 15.0396L60.7747 14.4256H60.8392C59.6824 13.7124 59.0124 12.8753 59.0002 12.0041C58.9981 11.8334 59.0114 11.6608 59.039 11.4895C59.1989 10.5102 59.8538 9.48042 60.9708 8.7004C62.0444 7.95085 63.558 7.42291 65.474 7.39717C65.9995 7.39034 66.5572 7.42075 67.1426 7.49432C67.3139 6.93875 67.6475 6.4428 68.0963 6.05013C68.5262 5.67426 69.0635 5.39214 69.6612 5.245C69.6705 4.67205 69.759 4.10465 69.9614 3.53392C70.3683 2.38706 71.2258 1.2595 72.8094 0.101195C73.0428 -0.0695079 73.3718 -0.0192284 73.5425 0.214173C73.7132 0.447574 73.6629 0.776569 73.4295 0.94728C72.0331 1.969 71.2886 2.92962 70.9506 3.88277C70.8056 4.29215 70.7345 4.70744 70.7162 5.13078L70.7162 5.13158ZM79.4746 15.5776C78.7235 15.8247 77.8703 16.027 76.9395 16.1863L75.9069 29.5007C76.2573 29.2924 76.5937 29.0572 76.9122 28.794L79.4746 15.5776ZM74.8115 30.0457L75.8742 16.3452C75.0434 16.4519 74.1625 16.528 73.2469 16.5739L72.6352 30.6432C73.3857 30.5274 74.1178 30.3309 74.8116 30.0457L74.8115 30.0457ZM71.5815 30.7515L72.1963 16.614L71.7159 16.6233H71.6997L71.6975 16.6239L71.5892 16.6254L71.5712 16.6261H71.5535L71.5355 16.6267H71.5001L71.484 16.6273H71.4651L71.4477 16.6279H71.412L71.3962 16.6285H71.3447L71.34 16.6292H71.2776L71.2683 16.6298H71.1795L71.1637 16.6304H70.9334L70.9166 16.6298H70.8322L70.8155 16.6292H70.7819L70.7478 16.6285H70.731L70.7143 16.6279H70.6805L70.6637 16.6273H70.6196L70.6134 16.6267H70.5967L70.5799 16.6261H70.5479L70.5464 16.6254H70.5296L70.4961 16.6242H70.4762L70.4626 16.6236H70.4458L70.429 16.623L70.3955 16.6223L70.3794 16.6217L69.979 16.6118L69.5802 30.685C70.042 30.739 70.5073 30.7676 70.9713 30.7676C71.1758 30.7676 71.38 30.7617 71.584 30.7508L71.5815 30.7515ZM68.5348 30.5178L68.9305 16.5614C68.1465 16.5108 67.388 16.4338 66.6608 16.3265C66.3508 16.2818 66.0469 16.2324 65.7502 16.1787L66.8374 30.0406C67.3865 30.2386 67.9557 30.3984 68.5349 30.5176L68.5348 30.5178ZM65.7483 29.5855L64.68 15.9596C64.0645 15.8184 63.4882 15.6558 62.9577 15.4773L61.9629 15.1588L64.3264 28.7696C64.7715 29.0735 65.2483 29.346 65.7485 29.5853L65.7483 29.5855ZM71.3279 15.5782C72.7318 15.5646 74.0692 15.4615 75.2936 15.2877C76.6422 15.0937 77.2303 15.1732 78.2577 14.8194L79.5851 14.4261C81.1209 13.8454 82.0548 13.0561 82.0548 12.0548H82.0569L82.0563 12.0101C82.0511 11.7941 82.0079 11.5756 81.9334 11.3618C81.6311 10.4959 80.8121 9.68422 79.7261 9.08917C78.6072 8.47525 77.2188 8.10281 75.8234 8.13849C75.2865 8.15214 74.7461 8.22725 74.221 8.37282V8.39175L74.2203 8.41441C74.2194 8.46996 74.216 8.52521 74.212 8.57983L74.2104 8.60032L74.2082 8.6208L74.194 8.7434L74.1915 8.76482L74.1884 8.78375L74.1753 8.86414L74.1716 8.88679L74.1679 8.90417L74.1511 8.98363L74.1465 9.00691L74.1421 9.02305L74.1117 9.14037L74.1049 9.16458L74.1002 9.17917L74.0934 9.20338L74.0887 9.21766L74.0813 9.24249L74.0766 9.25614L74.0503 9.33249L74.0413 9.35764L74.0366 9.37036L74.0273 9.3955L74.022 9.40761L74.0127 9.43275L74.0074 9.44485L73.9975 9.47061L73.9922 9.4821L73.9817 9.50786L73.9764 9.51903L73.9652 9.54479L73.9599 9.55597L73.9485 9.58173L73.9432 9.59228L73.9311 9.61866L73.9258 9.62859L73.9131 9.65497L73.9078 9.66429L73.8948 9.69098L73.8901 9.69998L73.8764 9.72667L73.8712 9.73567L73.8569 9.76236L73.8522 9.77074L73.8376 9.79744L73.8324 9.80582L73.8172 9.83251L73.8125 9.84027L73.7967 9.86758L73.792 9.87503L73.7759 9.90234L73.7712 9.90917L73.7545 9.93649L73.7498 9.94331L73.7324 9.97063L73.7278 9.97683L73.7098 10.0041L73.7054 10.0104L73.6865 10.0377L73.6822 10.0436L73.6632 10.0715L73.6589 10.0768L73.6353 10.1094L73.6148 10.1373L73.6111 10.142L73.5906 10.1699L73.5869 10.1742L73.5654 10.2022L73.5617 10.2065L73.5397 10.2344L73.5366 10.2382L73.5139 10.2661L73.5108 10.2698L73.4872 10.2978L73.4848 10.3009L73.4605 10.3288L73.4581 10.3319L73.4339 10.3592L73.4314 10.3623L73.4062 10.3896L73.4041 10.3921L73.3783 10.42L73.3761 10.4222L73.3497 10.4502L73.3476 10.4517L73.3209 10.4796L73.3193 10.4812L73.2914 10.5085L73.2905 10.5101L73.2622 10.5374L73.2613 10.5383L73.2324 10.5662L73.2315 10.5669L73.202 10.5942L73.2014 10.5948L73.171 10.6227L73.1399 10.65C72.4903 11.2177 71.5974 11.5703 70.6185 11.5703C69.6393 11.5703 68.7466 11.2183 68.097 10.6494L68.0682 10.6236L68.066 10.6221L68.0393 10.5979L68.035 10.5935L68.0107 10.5715L68.0045 10.5656L67.9831 10.5451L67.9747 10.5367L67.9552 10.5184L67.9158 10.479L67.9012 10.4638L67.8869 10.4495L67.8742 10.4365L67.8478 10.4085L67.8304 10.3896L67.822 10.3803L67.8025 10.3592L67.7963 10.3517L67.7758 10.3282L67.7711 10.3229L67.7491 10.2971L67.746 10.294L67.7224 10.2661L67.7218 10.2652L67.6976 10.2357L67.6966 10.2341L67.6734 10.2059L67.6709 10.2028L67.6504 10.1761L67.6457 10.1702L67.6274 10.146L67.6215 10.1382L67.6048 10.1156L67.597 10.105L67.5824 10.0851L67.5734 10.0721L67.5607 10.0541L67.5501 10.0389L67.539 10.0231L67.5269 10.0051L67.5176 9.9914L67.5045 9.97154L67.4971 9.96006L67.4825 9.9374L67.4766 9.92809L67.4608 9.90295L67.4564 9.89612L67.4397 9.86818L67.4372 9.86384L67.4192 9.83342L67.4176 9.83125L67.3987 9.79804L67.3807 9.76545L67.3791 9.76297L67.3624 9.73255L67.3599 9.72728L67.3453 9.69903L67.3416 9.69158L67.3279 9.6652L67.3233 9.65527L67.3118 9.63168L67.3056 9.61895L67.2956 9.59754L67.2882 9.58233L67.2798 9.5634L67.2714 9.54539L67.264 9.52926L67.255 9.50877L67.2491 9.49449L67.2392 9.47122L67.2345 9.45973L67.2239 9.43335L67.2202 9.42497L67.209 9.39611L67.2066 9.3899L67.1951 9.35824L67.1935 9.35452L67.1808 9.31975V9.31882L67.1681 9.28313L67.1675 9.28158L67.156 9.24744L67.155 9.24309L67.1451 9.21112L67.1429 9.20429L67.1339 9.17543L67.1315 9.1655L67.1237 9.1388L67.12 9.1267L67.1138 9.10249L67.1094 9.08728L67.1041 9.06587L67.0995 9.04786L67.0948 9.02893L67.0902 9.00783L67.0865 8.992L67.0812 8.96779L67.0781 8.95475L67.0728 8.92806L67.0706 8.91751L67.0632 8.88026L67.0573 8.84767L67.0563 8.8424L67.0504 8.80732L67.0498 8.80484L67.0387 8.72911V8.72539L67.034 8.69063L67.0334 8.68442L67.0297 8.65245L67.029 8.64345L67.0253 8.60186L67.0228 8.57548L67.0219 8.56089L67.0203 8.53668C66.4781 8.46778 65.9672 8.43891 65.4874 8.44574C63.8008 8.4684 62.4876 8.91968 61.5705 9.55995C60.6971 10.1695 60.1909 10.9433 60.0738 11.6593C60.0549 11.7745 60.0459 11.8868 60.0475 11.993C60.0586 12.8177 61.2762 13.6935 63.2313 14.3894C65.1084 15.0579 67.623 15.5135 70.4217 15.5734L70.4841 15.5743L70.4909 15.575L70.5607 15.5759L70.6253 15.5765L70.6306 15.5771L70.7004 15.5778L70.7671 15.5784L70.7702 15.579L70.8407 15.5796H70.9111L70.9816 15.5802H71.192L71.251 15.5796H71.3289L71.3279 15.5782ZM69.7267 6.31685C69.7571 6.55553 69.7981 6.79669 69.8459 7.03941C69.9012 7.32371 70.1771 7.50932 70.4614 7.45407C70.7457 7.39882 70.9313 7.1229 70.8761 6.8386C70.8323 6.61854 70.795 6.40097 70.7677 6.18526C71.4279 6.21785 72.0185 6.4618 72.4493 6.83891C72.8361 7.17721 73.0958 7.62601 73.1567 8.1245L73.1576 8.13226L73.1601 8.15957L73.1626 8.18627L73.1663 8.22723L73.1669 8.23468V8.24058L73.1675 8.24275L73.1682 8.25051V8.25889L73.1688 8.26727V8.26789L73.1694 8.27565V8.28465L73.17 8.30266V8.31166L73.1706 8.32097V8.34952C73.1706 8.93551 72.8947 9.47088 72.4496 9.86045C71.9863 10.2661 71.3382 10.5178 70.6175 10.5178C69.898 10.5178 69.2493 10.2661 68.7853 9.85983C68.3408 9.47094 68.0643 8.93553 68.0643 8.34954L68.0659 8.26015L68.0674 8.24029L68.0696 8.21359L68.0742 8.15959L68.0767 8.1329L68.0773 8.12855C68.1372 7.6304 68.3964 7.1785 68.7853 6.83898C69.047 6.60993 69.3669 6.43022 69.7267 6.31663L69.7267 6.31685Z" fill="#D8150D"/>
</g>
<defs>
<clipPath id="clip0_37_43">
<rect width="24" height="32" fill="white" transform="translate(59)"/>
</clipPath>
</defs>
</svg>
