<svg width="47" height="47" viewBox="0 0 47 47" fill="none" xmlns="http://www.w3.org/2000/svg">
<path d="M21.8493 13.2567L21.4875 12.6429C21.2435 12.2282 21.1216 12.021 20.9966 11.8595C20.0753 10.6689 18.4344 10.2494 17.0134 10.8407C16.8207 10.9209 16.6067 11.0411 16.1783 11.2837C13.853 12.7343 14.028 17.6853 14.1776 18.4189C14.1776 18.4189 14.2079 20.8444 17.5806 26.5741C20.9532 32.3037 23.441 34.1567 23.441 34.1567C24.8563 35.3002 28.2978 37.2747 30.7413 36.0248C31.1696 35.7822 31.3836 35.6607 31.5508 35.5371C32.7833 34.6257 33.233 33.0216 32.6424 31.6437C32.5623 31.4568 32.4405 31.2493 32.1964 30.8346L31.8352 30.2209C31.4422 29.5532 31.1819 29.1117 30.9426 28.7936C30.7386 28.5224 30.4437 28.3353 30.1314 28.1854C28.7822 27.538 26.1182 28.1507 24.7158 27.6107C24.5707 27.5549 24.4289 27.4896 24.2909 27.4155C24.1499 27.3397 24.0148 27.2559 23.8933 27.1532C23.5149 26.8335 22.6211 25.9946 21.7976 24.5955C20.7315 22.7844 20.646 21.5058 20.6439 21.4721V21.4698C20.6218 21.0728 20.6604 20.6793 20.7537 20.2992C21.0983 18.8962 22.8568 16.9574 22.8352 15.5276C22.832 15.3159 22.8119 15.1039 22.7373 14.9071C22.5868 14.5099 22.3091 14.0377 21.8493 13.2567Z" stroke="#2C1F24" stroke-width="2"/>
</svg>
