<svg dysplay="none"
	xmlns="http://www.w3.org/2000/svg">
	<symbol id="menu-btn" viewBox="0 0 35 26">
		<path d="M0 1H35" stroke-width="2"/>
		<path d="M0 13H35" stroke-width="2"/>
		<path d="M0 25H35" stroke-width="2"/>
	</symbol>

	<symbol id="close-btn" viewBox="0 0 23 23">
		<path d="M1 1L22 22" stroke-width="2"/>
		<path d="M22 1L1 22" stroke-width="2"/>
	</symbol>

		<symbol id="vk" viewBox="0 0 32 32">
<path d="M4.13644 8.07766C3.7875 8.1714 3.56356 8.30681 3.35524 8.54638C2.83965 9.12967 2.88132 9.93169 3.50627 11.8014C4.40725 14.4939 5.99568 17.4103 7.75077 19.6081C9.99019 22.4152 12.3546 24.0088 15.0419 24.5348C15.6981 24.665 17.2397 24.665 17.7449 24.54C18.5885 24.3265 19.0521 23.9463 19.2083 23.3318C19.2291 23.2433 19.2447 22.5818 19.2395 21.8631C19.2343 21.1392 19.2447 20.4674 19.2656 20.3633L19.2968 20.181L19.5937 20.3372C20.2291 20.6757 21.0988 21.4726 22.3956 22.8943C23.3643 23.9568 23.6559 24.2224 24.1298 24.4463L24.5204 24.6338H26.4213C28.6712 24.6338 28.7024 24.6286 29.192 24.139C29.4263 23.8995 29.5044 23.7797 29.5774 23.5401C29.9107 22.3892 29.0826 21.0143 26.2078 17.9572C25.6401 17.353 25.1714 16.8375 25.1714 16.8218C25.1714 16.801 25.4006 16.4573 25.687 16.0511C26.7703 14.4991 27.9212 12.5982 28.5045 11.4055C29.0201 10.3535 29.0982 10.0983 29.1034 9.50464C29.1034 8.92656 29.0097 8.69741 28.6555 8.39013C28.2389 8.03599 28.1347 8.02037 26.0307 8.02037C24.1923 8.02037 24.1507 8.02037 23.859 8.14015C23.6871 8.20786 23.432 8.37451 23.2705 8.52554C22.9737 8.79115 22.9424 8.84844 22.3591 10.1192C21.5883 11.7857 20.5832 13.4419 19.7239 14.4626C19.1666 15.1188 19.2135 15.3063 19.25 12.4419C19.2864 9.23383 19.25 8.90052 18.7708 8.41097C18.3646 7.98912 18.3594 7.98912 15.4481 8.00475L12.9535 8.02037L12.6463 8.17661C12.1046 8.45263 11.7817 9.03592 11.8599 9.59838C11.9015 9.90565 12.089 10.3119 12.3494 10.6608C12.464 10.8118 12.6046 11.0306 12.6619 11.1452C12.891 11.6087 12.9014 11.7232 12.9067 13.947V16.0771L12.7035 15.8479C12.4431 15.5563 11.7297 14.4678 11.3443 13.7752C10.7141 12.6503 10.0891 11.2441 9.54751 9.74942C9.19858 8.78594 8.91735 8.41097 8.31844 8.14015C8.06845 8.02558 8.01637 8.02037 6.24046 8.00995C4.76139 7.99954 4.36559 8.00995 4.13644 8.07766ZM7.73514 9.74942C7.78201 9.8015 7.89138 10.0411 7.97471 10.2858C8.76632 12.5148 9.87041 14.7491 10.9537 16.2854C11.3755 16.8895 12.188 17.7072 12.5629 17.9103C13.1618 18.2332 13.8962 18.1238 14.2347 17.6603C14.568 17.2124 14.5732 17.1447 14.5732 14.296C14.5732 11.968 14.5628 11.6764 14.4743 11.3014C14.3753 10.8535 14.0993 10.2129 13.9066 9.95253C13.8389 9.86399 13.766 9.75983 13.7451 9.72338C13.7139 9.6765 14.1097 9.66088 15.6356 9.66088H17.5678V12.2753C17.573 13.7179 17.5938 15.1292 17.6147 15.4157C17.6667 16.0302 17.8074 16.4104 18.073 16.6448C18.3125 16.8531 18.4688 16.9104 18.8229 16.9052C19.5937 16.9052 20.5051 16.2281 21.4477 14.9626C22.3279 13.7804 23.182 12.3065 23.9319 10.6921C24.1559 10.1973 24.385 9.75983 24.4319 9.72338C24.4944 9.6765 24.885 9.66088 25.963 9.66088C27.0879 9.66088 27.4108 9.6765 27.4108 9.72338C27.4108 9.75983 27.3275 9.98898 27.2286 10.2285C26.8848 11.0618 25.7547 12.9627 24.5256 14.7647C23.6663 16.025 23.484 16.3896 23.484 16.8427C23.4892 17.4624 23.6142 17.6499 25.0152 19.1133C25.6401 19.7643 26.5203 20.7591 26.9525 21.3059C27.4265 21.8996 27.9837 22.8006 27.9837 22.9724C27.9837 22.9829 27.3015 22.9933 26.463 22.9933H24.9475L24.7235 22.8631C24.6037 22.7902 24.1715 22.3683 23.7601 21.9152C21.9425 19.8997 20.7446 18.8998 19.7916 18.6082C19.276 18.4519 18.625 18.4884 18.2813 18.6915C17.9844 18.8634 17.8126 19.1081 17.6928 19.53C17.6199 19.7852 17.599 20.1185 17.5886 21.3476C17.573 22.6912 17.5626 22.8631 17.4845 22.9047C17.4376 22.9308 17.1147 22.9672 16.7658 22.9777C14.9013 23.061 13.0212 22.3371 11.2557 20.8632C9.55793 19.4414 7.9018 17.2645 6.5321 14.6553C5.73008 13.119 4.87076 10.9264 4.73015 10.0515C4.70931 9.9369 4.68327 9.8015 4.66765 9.74942C4.64682 9.66609 4.74056 9.66088 6.15192 9.66088C7.52162 9.66088 7.66223 9.6713 7.73514 9.74942Z"/>
	</symbol>

			<symbol id="inst" viewBox="0 0 32 32">
<path d="M10.2977 6.05827C9.17665 6.22623 8.28996 6.67153 7.4814 7.48009C6.64939 8.3121 6.19628 9.24176 6.04394 10.4097C5.98535 10.8667 5.98535 21.132 6.04394 21.589C6.19628 22.7569 6.64939 23.6866 7.4814 24.5186C8.3134 25.3506 9.24306 25.8037 10.411 25.9561C10.868 26.0146 21.1333 26.0146 21.5903 25.9561C22.7582 25.8037 23.6879 25.3506 24.5199 24.5186C25.3519 23.6866 25.805 22.7569 25.9574 21.589C26.0159 21.132 26.0159 10.8667 25.9574 10.4097C25.805 9.24176 25.3519 8.3121 24.5199 7.48009C23.6879 6.64809 22.7582 6.19498 21.5903 6.04264C21.0903 5.97624 10.7391 5.99186 10.2977 6.05827ZM22.0044 7.82383C22.4458 7.97617 22.5434 8.02695 22.9067 8.27694C23.4848 8.67537 23.9418 9.29644 24.1723 9.99564L24.3012 10.3941V15.9993C24.3012 21.3625 24.2973 21.6164 24.2269 21.839C23.9652 22.6866 23.5121 23.3155 22.8442 23.7686C22.5551 23.9639 22.3051 24.0772 21.8989 24.2061L21.6059 24.2999H16.0007H10.3954L9.99694 24.171C8.90323 23.8116 8.13763 23.0108 7.77436 21.839C7.70405 21.6164 7.70014 21.3625 7.70014 15.9993C7.70014 10.6362 7.70405 10.3823 7.77436 10.1597C8.05169 9.2691 8.53605 8.62068 9.25868 8.16757C9.56336 7.97617 10.0868 7.77305 10.411 7.71837C10.5086 7.70274 13.0789 7.69102 16.1178 7.69493L21.645 7.69884L22.0044 7.82383Z"/>
<path d="M21.1568 9.37425C20.8794 9.43675 20.7193 9.52269 20.5317 9.7141C20.2778 9.97583 20.1997 10.1829 20.1997 10.5891C20.1997 10.8938 20.2153 10.968 20.3052 11.136C20.52 11.5423 20.8833 11.7806 21.3365 11.8118C21.6685 11.8314 21.8443 11.7845 22.1216 11.597C22.899 11.0735 22.8092 9.88207 21.9654 9.47972C21.6763 9.34299 21.4458 9.31174 21.1568 9.37425Z"/>
<path d="M15.3602 11.0426C13.4736 11.3043 11.8642 12.6167 11.2783 14.3823C11.0791 14.9838 11.0244 15.3315 11.0244 15.9994C11.0244 16.6674 11.0791 17.015 11.2783 17.6205C11.751 19.0345 12.9697 20.2493 14.3915 20.7258C14.9852 20.9211 15.3368 20.9758 16.0008 20.9758C16.6649 20.9758 17.0164 20.9211 17.6101 20.7258C19.032 20.2493 20.2507 19.0345 20.7233 17.6205C20.9225 17.015 20.9772 16.6674 20.9772 15.9994C20.9772 15.1245 20.8093 14.4096 20.4304 13.6948C19.7077 12.3394 18.4656 11.4058 16.9578 11.0972C16.5828 11.0191 15.7313 10.9879 15.3602 11.0426ZM17.0047 12.8316C17.4226 12.9683 17.5359 13.023 17.8562 13.2378C18.5125 13.6792 18.9538 14.2925 19.2077 15.101C19.2859 15.3549 19.3015 15.476 19.3015 15.9994C19.3015 16.6439 19.2546 16.8822 19.0242 17.3939C18.7351 18.0501 18.0515 18.7337 17.3914 19.0267C16.8836 19.2532 16.6453 19.3001 16.0008 19.3001C15.3563 19.3001 15.118 19.2532 14.6102 19.0267C13.9501 18.7337 13.2665 18.0501 12.9775 17.3939C12.747 16.8822 12.7001 16.6439 12.7001 15.9994C12.7001 15.476 12.7158 15.3549 12.7939 15.101C12.9267 14.6792 13.0439 14.4331 13.2665 14.1089C13.7079 13.4683 14.3251 13.0269 15.0829 12.8042C15.4696 12.6909 15.5282 12.6831 16.118 12.6988C16.5828 12.7105 16.6883 12.7261 17.0047 12.8316Z"/>
	</symbol>

			<symbol id="tg" viewBox="0 0 32 32">
<path d="M25.1554 7.27506C25.0444 7.30792 23.4997 7.8872 21.7249 8.56508C19.9501 9.24296 15.9198 10.7795 12.7687 11.9832C9.61758 13.187 6.91839 14.2264 6.7746 14.2962C6.49112 14.4318 6.19943 14.6906 6.09261 14.896C5.9899 15.1015 5.96936 15.3932 6.04742 15.6314C6.1337 15.8862 6.44593 16.1943 6.77049 16.3463C6.89374 16.4038 7.8592 16.6996 8.91505 16.9995L10.8336 17.55L11.8648 20.5081C12.5468 22.4595 12.9494 23.5441 13.0398 23.7002C13.2165 23.9878 13.4959 24.2425 13.7958 24.3863C13.993 24.4808 14.0751 24.4931 14.4326 24.4931C14.7777 24.4931 14.8804 24.4767 15.057 24.3945C15.398 24.2425 15.5582 24.1111 16.7949 22.9731C17.4358 22.3856 17.9698 21.9049 17.9904 21.9049C18.0068 21.9049 18.7669 22.5047 19.6789 23.2401C20.5869 23.9714 21.425 24.6328 21.5318 24.7068C21.9796 25.0108 22.6493 25.0889 23.0889 24.8917C23.4586 24.7314 23.8119 24.3247 23.9639 23.8974C24.0009 23.7947 24.6993 20.4218 25.5169 16.3997C26.8644 9.75239 27 9.04986 27 8.69655C26.9959 8.03099 26.7699 7.62837 26.2605 7.37777C25.94 7.22165 25.4963 7.18056 25.1554 7.27506ZM25.7428 8.49934C25.7716 8.5281 25.7921 8.60616 25.7921 8.676C25.7921 8.88964 22.8341 23.4168 22.7602 23.5647C22.5712 23.9508 22.4726 23.9015 21.0347 22.7471C17.103 19.5878 16.1581 18.8154 16.1581 18.7743C16.1581 18.7497 17.5919 17.209 19.342 15.348C21.0922 13.491 22.5589 11.9175 22.6 11.8559C22.6986 11.7039 22.6986 11.4039 22.6 11.2314C22.5178 11.0876 22.222 10.9151 22.0618 10.9151C21.9549 10.9151 21.4825 11.1533 15.2419 14.3414L11.2486 16.3833L9.39983 15.8574C8.38507 15.5698 7.55108 15.3233 7.55108 15.311C7.55108 15.2987 8.73839 14.8385 10.1927 14.288C11.643 13.7334 13.6725 12.961 14.6996 12.5666C15.7267 12.1763 17.1441 11.634 17.8425 11.367C19.3256 10.8 25.332 8.51167 25.4224 8.4788C25.5333 8.43772 25.6935 8.45004 25.7428 8.49934ZM18.9846 13.9224C18.1629 14.7851 14.7243 18.458 14.6832 18.5278C14.6503 18.5771 14.4367 19.3865 14.2025 20.3232C13.9724 21.2599 13.7752 22.0487 13.7588 22.0774C13.7465 22.1021 13.3603 21.0504 12.9001 19.7398C12.4441 18.4251 12.0744 17.3487 12.0785 17.3446C12.099 17.3282 16.0307 15.3233 17.5138 14.5715C18.3273 14.1565 19.0093 13.8032 19.0339 13.7868C19.0545 13.7662 19.0914 13.7498 19.112 13.7498C19.1366 13.7498 19.0791 13.8279 18.9846 13.9224ZM16.3142 20.5245C16.6922 20.8285 17.0003 21.0873 16.9962 21.0997C16.9921 21.1366 14.8187 23.1251 14.8023 23.1086C14.7941 23.1004 14.9543 22.4308 15.1556 21.6173C15.3528 20.8039 15.5295 20.0972 15.5418 20.0438C15.5541 19.9904 15.5788 19.9534 15.5952 19.9616C15.6117 19.9699 15.9362 20.2205 16.3142 20.5245Z"/>
	</symbol>
</svg>


